<svg width="79" height="80" viewBox="0 0 79 80" fill="none" xmlns="http://www.w3.org/2000/svg">
<path d="M55.9973 43.0966C56.281 51.3148 49.8462 59.2473 40.5822 59.8265C30.8631 60.4334 23.4309 52.8927 22.9959 44.2142C22.5285 34.8823 29.7636 27.3842 38.5137 26.8419C47.9626 26.2569 56.0606 33.9418 55.9973 43.0966ZM54.4408 44.2246C54.3528 44.1877 54.3244 44.1645 54.2953 44.1645C52.4214 44.1612 50.5482 44.1606 48.6743 44.1561C48.4991 44.1561 48.4623 44.2427 48.4558 44.3972C48.4403 44.7624 48.4494 45.1347 48.3783 45.4902C48.0952 46.9032 47.792 48.3117 47.4785 49.7182C47.4268 49.9497 47.4585 50.0557 47.6795 50.1668C48.8708 50.7654 50.0557 51.3782 51.234 52.0026C51.47 52.1273 51.5953 52.1215 51.7537 51.8862C52.9457 50.1125 53.7924 48.1966 54.1712 46.0868C54.2824 45.4657 54.3535 44.8374 54.4414 44.2246H54.4408ZM27.4307 52.139C28.7694 51.4396 30.0803 50.7544 31.406 50.0615C31.406 50.0615 31.4106 50.0285 31.4015 49.9988C30.8275 48.1979 30.4319 46.3622 30.3117 44.4728C30.2962 44.2317 30.2044 44.149 29.9549 44.1503C28.2762 44.1606 26.5982 44.1554 24.9195 44.1567C24.8264 44.1567 24.7334 44.1703 24.6067 44.1806C24.7683 47.1359 25.7883 49.7486 27.4314 52.1383L27.4307 52.139ZM51.8306 34.8222C51.7207 34.8494 51.6962 34.8494 51.68 34.8603C50.4693 35.6942 49.1565 36.3386 47.8185 36.9346C47.5987 37.0322 47.5444 37.1479 47.6117 37.3845C48.0648 38.983 48.386 40.6067 48.472 42.2699C48.4856 42.5285 48.6258 42.5265 48.8114 42.5259C50.5553 42.5233 52.2986 42.5201 54.0426 42.5291C54.3037 42.5304 54.4007 42.4696 54.38 42.1865C54.2533 40.4387 53.8364 38.7645 53.0892 37.1828C52.7052 36.3703 52.2456 35.594 51.8313 34.8216L51.8306 34.8222ZM31.2515 37.0665C29.9892 36.36 28.75 35.6703 27.5148 34.9722C27.2375 34.8157 27.1263 34.9954 27.0048 35.1835C25.6422 37.2959 24.8426 39.6023 24.6267 42.1083C24.5918 42.5142 24.6086 42.5362 25.0074 42.5375C26.6551 42.5433 28.3034 42.5394 29.951 42.5563C30.2257 42.5588 30.291 42.4541 30.3188 42.2098C30.4145 41.365 30.4972 40.5169 30.6511 39.6818C30.8165 38.7846 31.057 37.901 31.2515 37.0658V37.0665ZM31.8941 44.1748C31.9296 44.5232 31.9626 44.8315 31.9923 45.1405C32.1261 46.5406 32.4383 47.9019 32.8539 49.2432C32.9302 49.4888 33.0401 49.5547 33.2993 49.4778C34.9586 48.9898 36.656 48.7099 38.3812 48.6052C38.6372 48.5897 38.7309 48.5121 38.7277 48.2419C38.7141 47.0034 38.7122 45.7643 38.729 44.5252C38.7335 44.2175 38.6288 44.149 38.3411 44.1503C36.316 44.1606 34.2902 44.1554 32.2651 44.1567C32.1591 44.1567 32.0537 44.1664 31.8934 44.1742L31.8941 44.1748ZM45.8186 49.4636C45.8444 49.4164 45.8703 49.3815 45.8839 49.3427C46.4275 47.7448 46.7539 46.1049 46.8573 44.4198C46.8741 44.147 46.7235 44.1561 46.5393 44.1561C44.5807 44.158 42.6222 44.1619 40.6643 44.1515C40.3889 44.1503 40.3204 44.2433 40.323 44.5038C40.334 45.752 40.3359 47.0002 40.3217 48.2484C40.3184 48.5263 40.4296 48.5806 40.6753 48.6058C41.5524 48.697 42.4308 48.7855 43.3002 48.9309C44.136 49.0706 44.9602 49.2793 45.8186 49.4636ZM32.8539 37.6036C32.8391 37.6327 32.7893 37.7038 32.7654 37.782C32.3155 39.2261 32.0473 40.7043 31.9322 42.2117C31.9141 42.4515 31.9981 42.5362 32.2366 42.5356C34.2915 42.5278 36.3464 42.5252 38.4013 42.5298C38.6288 42.5298 38.6928 42.4464 38.6934 42.2279C38.696 41.1413 38.6986 40.0547 38.7316 38.9688C38.7419 38.632 38.6081 38.5538 38.3108 38.528C37.5299 38.4594 36.7439 38.4019 35.9734 38.2662C34.9386 38.0839 33.916 37.8324 32.8552 37.603L32.8539 37.6036ZM46.8198 42.5511C46.8334 42.449 46.8483 42.3966 46.8463 42.3442C46.8004 40.7961 46.4837 39.2946 46.0623 37.8111C46.0067 37.6166 45.8826 37.6301 45.7371 37.6708C44.0766 38.1414 42.3888 38.4575 40.6617 38.5357C40.4064 38.5473 40.3197 38.6559 40.323 38.9177C40.3365 40.0043 40.3385 41.0909 40.3223 42.1768C40.3178 42.4716 40.3992 42.5588 40.6985 42.5569C42.6241 42.544 44.5497 42.5504 46.4753 42.5504C46.5813 42.5504 46.6873 42.5504 46.8205 42.5504L46.8198 42.5511ZM38.6656 36.9275V28.5593C38.6372 28.5451 38.6087 28.5309 38.5797 28.5167C38.2145 28.9039 37.8357 29.2794 37.486 29.6795C35.9114 31.4797 34.563 33.4292 33.5895 35.6237C33.4182 36.0103 33.4195 36.0264 33.8352 36.1505C34.1855 36.2546 34.5384 36.3548 34.8959 36.4311C36.1266 36.6948 37.3632 36.9152 38.6656 36.9275ZM45.4301 36.0717C44.2188 33.2276 42.5213 30.7939 40.3585 28.5561V36.9495C42.0896 36.8609 43.754 36.5862 45.4301 36.0723V36.0717ZM38.6824 50.2005C36.9262 50.2961 35.2456 50.5695 33.5663 51.0938C34.8461 53.7918 36.4847 56.1543 38.5751 58.1918C38.6107 58.1762 38.6469 58.1601 38.6824 58.1446V50.2005ZM45.1955 51.0227C45.0894 50.9878 44.9821 50.9483 44.8716 50.9173C43.5181 50.5405 42.1354 50.3375 40.7386 50.2147C40.3307 50.1791 40.3288 50.1836 40.3288 50.6032C40.3288 52.9515 40.3288 55.2998 40.3288 57.6475C40.3288 57.76 40.3288 57.8724 40.3288 58.0101C41.4199 57.4161 44.8516 52.4738 45.1955 51.022V51.0227ZM46.9691 35.561C48.293 34.9541 49.5541 34.3439 50.7583 33.5469C48.6297 31.0867 45.9672 29.6168 42.8781 28.8321C44.5148 30.896 45.9407 33.0744 46.9698 35.561H46.9691ZM35.9676 28.889C32.9147 29.6175 30.3847 31.1805 28.2723 33.5301C29.4158 34.3277 30.6084 34.9276 31.8766 35.4764C32.9483 33.0795 34.2838 30.8818 35.9676 28.889ZM42.8284 57.8123C42.8478 57.8395 42.8672 57.8673 42.8866 57.8951C45.8244 57.1569 48.3595 55.729 50.4681 53.4563C50.3058 53.3432 50.2011 53.2533 50.0822 53.1907C49.1985 52.722 48.324 52.2333 47.4223 51.8016C46.7183 51.4641 46.8334 51.4318 46.4915 52.1403C45.7598 53.658 44.8955 55.0917 43.8859 56.4388C43.5394 56.9009 43.1813 57.3547 42.8284 57.8123ZM32.0304 51.5553C30.8275 52.1797 29.6892 52.7705 28.4753 53.4007C30.567 55.6217 32.9897 57.0522 35.8564 57.7671C34.3891 55.8434 33.0272 53.8681 32.0304 51.5559V51.5553Z" fill="white"/>
<path d="M7.79436 49.452C5.59793 49.452 3.4015 49.4533 1.20507 49.4514C0.460431 49.4507 0.0881115 49.0842 0.0228262 48.337C-0.258999 45.1121 2.1126 42.7192 4.71755 42.3372C4.89789 42.3107 5.12865 42.3598 5.28249 42.4574C7.01934 43.5537 8.78204 43.6183 10.5628 42.5951C10.9138 42.3934 11.2273 42.3624 11.6029 42.4755C14.2195 43.2654 15.8652 45.6771 15.6034 48.3557C15.5278 49.1295 15.1548 49.474 14.3849 49.474C12.1885 49.4746 9.99144 49.474 7.79501 49.474C7.79501 49.4669 7.79501 49.4598 7.79501 49.452H7.79436Z" fill="white"/>
<path d="M71.1763 49.4528C68.9689 49.4528 66.7621 49.4541 64.5547 49.4522C63.8346 49.4515 63.4584 49.1051 63.3873 48.394C63.0932 45.4484 65.1617 42.7705 68.0814 42.3367C68.2611 42.3102 68.4912 42.3652 68.6464 42.4628C70.3722 43.5519 72.1272 43.6172 73.8983 42.6069C74.2719 42.3936 74.6022 42.3632 74.9984 42.4886C77.5782 43.3089 79.1754 45.6249 78.9718 48.2686C78.9045 49.1354 78.5367 49.4754 77.6686 49.4754C75.5045 49.4754 73.3398 49.4754 71.1757 49.4754C71.1757 49.4683 71.1757 49.4606 71.1757 49.4535L71.1763 49.4528Z" fill="white"/>
<path d="M39.8512 79.9862C37.6657 79.9862 35.4803 79.9875 33.2948 79.9862C32.4739 79.9862 32.1171 79.6552 32.0454 78.8382C31.79 75.9217 33.8565 73.2967 36.7672 72.8604C36.9372 72.8352 37.1544 72.8934 37.3024 72.9864C39.0632 74.1002 40.8427 74.1402 42.6397 73.0963C42.9338 72.9257 43.2059 72.8882 43.5278 72.98C46.1903 73.7388 47.8515 76.1246 47.6304 78.8841C47.5703 79.6332 47.1696 79.9998 46.4081 80.0004C44.2227 80.0004 42.0366 80.0004 39.8512 80.0004C39.8512 79.9959 39.8512 79.9914 39.8512 79.9868V79.9862Z" fill="white"/>
<path d="M39.8648 15.1713C37.6574 15.1713 35.45 15.1713 33.2425 15.1713C32.5044 15.1713 32.1236 14.8268 32.0525 14.1016C31.761 11.1204 33.843 8.46569 36.8184 8.03972C36.9599 8.01968 37.1409 8.06752 37.2637 8.14573C39.0368 9.28661 40.8344 9.3409 42.6533 8.27371C42.9377 8.10695 43.2015 8.07592 43.5124 8.16383C46.1807 8.91881 47.8451 11.2936 47.6318 14.055C47.573 14.8145 47.1819 15.1797 46.4231 15.1797C44.237 15.1797 42.0509 15.1797 39.8654 15.1797C39.8654 15.1765 39.8654 15.1739 39.8654 15.1707L39.8648 15.1713Z" fill="white"/>
<path d="M44.2249 69.0427C44.3483 71.1396 42.2954 73.2966 39.9031 73.1809C37.5884 73.0691 35.8043 71.1784 35.8845 68.7965C35.9543 66.7157 37.7635 64.6764 40.3452 64.825C42.3594 64.9414 44.3173 66.7151 44.2242 69.0421L44.2249 69.0427Z" fill="white"/>
<path d="M75.5654 38.4968C75.6759 40.6338 73.6398 42.7481 71.2559 42.6511C68.9509 42.5568 67.1681 40.6797 67.2192 38.3139C67.269 36.0231 69.2237 34.2306 71.603 34.2946C73.791 34.3535 75.6158 36.2881 75.5654 38.4968Z" fill="white"/>
<path d="M8.08491 34.2949C10.335 34.2969 12.1636 36.1546 12.2237 38.3995C12.2871 40.7776 10.1786 42.6935 8.03061 42.6521C5.6965 42.6075 3.86464 40.795 3.86334 38.4447C3.86205 36.1384 5.73916 34.293 8.08491 34.2949Z" fill="white"/>
<path d="M44.2247 4.24248C44.3546 6.27796 42.3392 8.51576 39.8254 8.36191C37.5391 8.22229 35.7887 6.30898 35.8844 3.93738C35.9742 1.70152 37.9573 -0.0805729 40.2623 0.00281133C42.4736 0.0829636 44.3062 2.04346 44.2241 4.24183L44.2247 4.24248Z" fill="white"/>
<path d="M62.072 65.9383C61.5821 65.4251 61.1031 64.9235 60.6073 64.4038C61.7979 63.1873 62.977 61.8693 63.9362 60.3845C64.8916 58.9056 65.7694 57.3775 66.7053 55.8301C67.2095 56.0712 67.7719 56.3356 68.3304 56.6077C68.554 56.7169 68.4396 56.8843 68.3691 57.0201C67.9988 57.7369 67.6342 58.4576 67.2412 59.1616C65.8734 61.6114 64.1398 63.7871 62.2142 65.8161C62.1716 65.8614 62.1192 65.8976 62.0714 65.9377L62.072 65.9383Z" fill="white"/>
<path d="M19.2755 21.467C18.7849 20.9544 18.3059 20.4541 17.8289 19.9558C19.4662 18.1103 24.8525 14.6683 27.3773 13.8564C27.6191 14.455 27.8699 15.0561 28.0948 15.6663C28.1136 15.7168 27.9759 15.8641 27.8828 15.9113C26.9042 16.4084 25.9035 16.8641 24.9404 17.3896C23.0717 18.4096 21.3549 19.6533 19.7564 21.0598C19.6116 21.1871 19.4616 21.3093 19.2748 21.467H19.2755Z" fill="white"/>
<path d="M17.6768 63.6555C17.1642 64.1351 16.6704 64.596 16.1371 65.0944C13.5186 62.2864 11.5102 59.125 10.0029 55.575C10.6318 55.3171 11.2226 55.0663 11.8244 54.8439C11.8819 54.8226 12.0442 54.9667 12.0946 55.0656C12.4572 55.7864 12.7907 56.5219 13.1572 57.2401C14.3052 59.4895 15.7784 61.5134 17.4551 63.3937C17.5191 63.4655 17.5805 63.5404 17.6774 63.6548L17.6768 63.6555Z" fill="white"/>
<path d="M26.219 72.4C22.7363 70.7872 19.6789 68.627 16.9601 65.9613C17.4307 65.4771 17.8806 65.0046 18.3492 64.5522C18.3848 64.5179 18.5781 64.5974 18.6608 64.6672C19.5392 65.4119 20.3886 66.1914 21.2871 66.9108C22.8804 68.1875 24.6289 69.2249 26.444 70.157C27.1886 70.539 27.1207 70.3755 26.7911 71.1389C26.6127 71.5519 26.42 71.9591 26.2197 72.4H26.219Z" fill="white"/>
<path d="M50.8948 70.9216C51.43 70.6695 51.9349 70.4342 52.4378 70.1944C54.9929 68.9773 57.3012 67.391 59.4175 65.5171C59.7652 65.2088 59.773 65.2056 60.0871 65.5288C60.3871 65.8378 60.6631 66.1694 60.9682 66.4732C61.1744 66.6794 61.166 66.8112 60.9423 67.0122C59.6017 68.2171 58.1712 69.3005 56.6548 70.2752C55.247 71.1795 53.7758 71.961 52.2439 72.63C51.7067 72.8647 51.6989 72.8582 51.4766 72.3333C51.2801 71.8699 51.0926 71.4025 50.8948 70.9216Z" fill="white"/>
<path d="M62.1581 20.7918C61.6171 21.3302 61.1297 21.8144 60.6159 22.3257C60.3922 22.1143 60.1608 21.8958 59.93 21.6767C57.7769 19.6425 55.3568 17.9942 52.7163 16.6594C51.9543 16.2742 51.9601 16.258 52.3169 15.4907C52.4436 15.2173 52.5948 14.9549 52.7105 14.6769C52.8217 14.4106 52.9594 14.399 53.2057 14.5205C55.4357 15.6187 57.5507 16.8986 59.4731 18.4783C60.378 19.2223 61.25 20.0064 62.1581 20.7911V20.7918Z" fill="white"/>
<path d="M67.1154 31.9852C66.5381 30.8528 66.0152 29.7552 65.4296 28.6925C64.3811 26.7915 63.0935 25.0547 61.6488 23.4367C61.4349 23.1969 61.42 23.0392 61.6585 22.8298C62.0761 22.4613 62.482 22.0793 62.9416 21.6592C63.5163 22.3444 64.0786 22.9785 64.6015 23.6442C66.2705 25.7696 67.6551 28.0681 68.7475 30.5419C68.7604 30.5716 68.7733 30.6013 68.7856 30.6311C69.0196 31.1863 69.0209 31.1889 68.4637 31.4261C68.0106 31.6194 67.5536 31.8043 67.1154 31.9859V31.9852Z" fill="white"/>
<path d="M16.9846 20.7812C17.4687 21.2964 17.9303 21.7864 18.4138 22.3009C18.269 22.4567 18.0822 22.6616 17.8921 22.8626C15.7403 25.1431 13.9899 27.7008 12.6195 30.5185C12.4864 30.7925 12.3603 30.8604 12.0856 30.7201C11.6739 30.5101 11.2511 30.3207 10.8258 30.139C10.5938 30.0395 10.5627 29.9173 10.6668 29.6924C11.3649 28.1837 12.2013 26.7545 13.1354 25.3822C14.198 23.8212 15.39 22.3649 16.7235 21.0262C16.7991 20.9506 16.8786 20.8795 16.984 20.7812H16.9846Z" fill="white"/>
</svg>
