<svg width="59" height="74" viewBox="0 0 59 74" fill="none" xmlns="http://www.w3.org/2000/svg">
<path d="M52.25 31.3333L51.1667 28.8333L48.6667 27.75C48.2222 27.5278 48 27.1667 48 26.6667C48 26.1667 48.2222 25.8056 48.6667 25.5833L51.1667 24.5L52.25 22C52.4722 21.5556 52.8333 21.3333 53.3333 21.3333C53.8333 21.3333 54.1944 21.5556 54.4167 22L55.5 24.5L58 25.5833C58.4444 25.8056 58.6667 26.1667 58.6667 26.6667C58.6667 27.1667 58.4444 27.5278 58 27.75L55.5 28.8333L54.4167 31.3333C54.1944 31.7778 53.8333 32 53.3333 32C52.8333 32 52.4722 31.7778 52.25 31.3333ZM35.1667 46.6667L32.5 40.8333L26.6667 38.1667C26 37.8889 25.6667 37.3889 25.6667 36.6667C25.6667 35.9444 26 35.4444 26.6667 35.1667L32.5 32.5L35.1667 26.6667C35.4444 26 35.9444 25.6667 36.6667 25.6667C37.3889 25.6667 37.8889 26 38.1667 26.6667L40.8333 32.5L46.6667 35.1667C47.3333 35.4444 47.6667 35.9444 47.6667 36.6667C47.6667 37.3889 47.3333 37.8889 46.6667 38.1667L40.8333 40.8333L38.1667 46.6667C37.8889 47.3333 37.3889 47.6667 36.6667 47.6667C35.9444 47.6667 35.4444 47.3333 35.1667 46.6667ZM52.25 51.3333L51.1667 48.8333L48.6667 47.75C48.2222 47.5278 48 47.1667 48 46.6667C48 46.1667 48.2222 45.8056 48.6667 45.5833L51.1667 44.5L52.25 42C52.4722 41.5556 52.8333 41.3333 53.3333 41.3333C53.8333 41.3333 54.1944 41.5556 54.4167 42L55.5 44.5L58 45.5833C58.4444 45.8056 58.6667 46.1667 58.6667 46.6667C58.6667 47.1667 58.4444 47.5278 58 47.75L55.5 48.8333L54.4167 51.3333C54.1944 51.7778 53.8333 52 53.3333 52C52.8333 52 52.4722 51.7778 52.25 51.3333ZM40 63.3333H6.66667V66.6667H40V63.3333ZM40 10V6.66667H6.66667V10H40ZM6.66667 73.3333C4.83333 73.3333 3.26444 72.6811 1.96 71.3767C0.653333 70.07 0 68.5 0 66.6667V6.66667C0 4.83333 0.653333 3.26333 1.96 1.95667C3.26444 0.652222 4.83333 0 6.66667 0H40C41.8333 0 43.4033 0.652222 44.71 1.95667C46.0144 3.26333 46.6667 4.83333 46.6667 6.66667V20H40V16.6667H6.66667V56.6667H40V53.3333H46.6667V66.6667C46.6667 68.5 46.0144 70.07 44.71 71.3767C43.4033 72.6811 41.8333 73.3333 40 73.3333H6.66667Z" fill="white"/>
</svg>
