<svg width="102" height="60" viewBox="0 0 102 60" fill="none" xmlns="http://www.w3.org/2000/svg">
<path d="M7.54248 0H101.401V26.8425H98.7705C98.7705 26.8425 95.1764 2.46702 71.052 2.1068C47.6016 1.75475 43.5081 26.8425 43.5081 26.8425H35.9651C35.9651 26.8425 31.2276 2.80815 7.54248 2.28145V0Z" fill="#1E1E1E"/>
<path d="M7.54248 60H101.401V33.1575H98.7705C98.7705 33.1575 95.1764 57.533 71.052 57.8932C47.6016 58.2453 43.5081 33.1575 43.5081 33.1575H35.9651C35.9651 33.1575 31.2276 57.1919 7.54521 57.7186V60H7.54248Z" fill="#1E1E1E"/>
<path d="M8.18703 39.2377C12.7086 39.2377 16.3741 35.5722 16.3741 31.0507C16.3741 26.5291 12.7086 22.8636 8.18703 22.8636C3.66546 22.8636 0 26.5291 0 31.0507C0 35.5722 3.66546 39.2377 8.18703 39.2377Z" fill="#1E1E1E"/>
<path d="M70.2613 28.9467H15.3945V31.9295H70.2613V28.9467Z" fill="#1E1E1E"/>
<path d="M83.5079 31.7111L68.2446 16.5787C68.2446 16.5787 71.0527 21.1389 69.8683 26.7088L68.2446 30.5403L69.257 34.5411C69.5654 40.2283 66.0859 44.3 66.0859 44.3L83.5052 31.7111H83.5079Z" fill="#1E1E1E"/>
</svg>
