<svg width="335" height="60" viewBox="0 0 335 60" fill="none" xmlns="http://www.w3.org/2000/svg">
<g clip-path="url(#clip0_1188_1093)">
<path d="M7.46973 0.289307H100.424V26.8731H97.8184C97.8184 26.8731 94.2589 2.73255 70.367 2.37579C47.1427 2.02714 43.0886 26.8731 43.0886 26.8731H35.6184C35.6184 26.8731 30.9265 3.07039 7.46973 2.54877V0.289307Z" fill="#1E1E1E"/>
<path d="M7.46973 59.711H100.424V33.1272H97.8184C97.8184 33.1272 94.2589 57.2677 70.367 57.6245C47.1427 57.9731 43.0886 33.1272 43.0886 33.1272H35.6184C35.6184 33.1272 30.9265 56.9299 7.47243 57.4515V59.711H7.46973Z" fill="#1E1E1E"/>
<path d="M8.10811 39.1488C12.5861 39.1488 16.2162 35.5187 16.2162 31.0407C16.2162 26.5627 12.5861 22.9326 8.10811 22.9326C3.63012 22.9326 0 26.5627 0 31.0407C0 35.5187 3.63012 39.1488 8.10811 39.1488Z" fill="#1E1E1E"/>
<path d="M69.5839 28.957H15.2461V31.9111H69.5839V28.957Z" fill="#1E1E1E"/>
<path d="M82.7028 31.6947L67.5866 16.7083C67.5866 16.7083 70.3676 21.2245 69.1947 26.7407L67.5866 30.5353L68.5893 34.4974C68.8947 40.1299 65.4487 44.1623 65.4487 44.1623L82.7001 31.6947H82.7028Z" fill="#1E1E1E"/>
<path d="M107.26 0H136.652V9.84595H118.611V13.7838H136.652V21.6595H118.611V26.4081H136.652V34.7487H107.26V0Z" fill="#1E1E1E"/>
<path d="M107.23 42.0161H124.692V47.1134H113.973V49.1512H123.403V53.2269H113.973V55.6837H124.692V59.9999H107.23V42.0161Z" fill="#1E1E1E"/>
<path d="M191.106 42.0161H208.568V47.1134H197.849V49.1512H207.279V53.2269H197.849V55.6837H208.568V59.9999H191.106V42.0161Z" fill="#1E1E1E"/>
<path d="M143.514 0V34.7487H154.895V17.3757L168.533 34.7487H179.652V0.375676H168.446V18.0973H167.276L154.2 0H143.514Z" fill="#1E1E1E"/>
<path d="M185.125 0.440353V34.7485H196.592V16.9701L197.23 17.6052L204.846 26.3512L213.273 17.3755V34.7485H223.525V0.375488H212.489L204.76 11.4971L196.768 0.375488L185.125 0.440353Z" fill="#1E1E1E"/>
<path d="M265.192 34.5622L254.884 0.189209H237.509L227.895 34.5622H239.246V30.5919H252.914V34.5622H265.192ZM242.952 21.2406L246.544 8.73245L250.482 21.2406H242.952Z" fill="#1E1E1E"/>
<path d="M296.7 0.189209V9.20813H280.744C279.641 9.20813 278.746 10.1027 278.746 11.2054C278.746 12.6297 279.9 13.7838 281.325 13.7838H288.646C294.206 13.7838 298.849 18.2081 298.906 23.7676C298.906 23.9135 298.906 24.0595 298.903 24.2081C298.838 26.8784 297.406 29.0379 295.638 30.6919C292.763 33.3865 288.919 34.8054 284.979 34.8054H269.714V26.2919H285.279C286.371 26.2919 287.425 25.7838 288.033 24.8757C288.49 24.1919 288.671 23.3433 287.806 22.5189C287.165 21.9081 286.292 21.6027 285.406 21.6027H276.373C276.373 21.6027 268.479 20.5703 267.552 11.827C267.552 11.827 266.644 1.41894 275.39 0.189209H296.703H296.7Z" fill="#1E1E1E"/>
<path d="M332.376 0.189209V9.20813H316.419C315.316 9.20813 314.422 10.1027 314.422 11.2054C314.422 12.6297 315.576 13.7838 317 13.7838H324.322C329.881 13.7838 334.524 18.2081 334.581 23.7676C334.581 23.9135 334.581 24.0595 334.578 24.2081C334.514 26.8784 333.081 29.0379 331.314 30.6919C328.438 33.3865 324.595 34.8054 320.654 34.8054H305.389V26.2919H320.954C322.046 26.2919 323.1 25.7838 323.708 24.8757C324.165 24.1919 324.346 23.3433 323.481 22.5189C322.841 21.9081 321.968 21.6027 321.081 21.6027H312.049C312.049 21.6027 304.154 20.5703 303.227 11.827C303.227 11.827 302.319 1.41894 311.065 0.189209H332.378H332.376Z" fill="#1E1E1E"/>
<path d="M148.146 42.0161V59.9999H152.549V47.5485L164.073 59.9999H168.187V42.0161H164.016V52.9918L153.532 42.0161H148.146Z" fill="#1E1E1E"/>
<path d="M247.008 53.8461C247.095 53.9434 248.784 52.6596 248.944 52.5326C249.622 51.9948 250.26 51.3948 250.779 50.7002C251.595 49.6083 251.965 48.3867 251.681 47.0434C251.238 44.9488 249.835 43.2461 247.792 42.5353C246.854 42.211 245.854 42.0894 244.865 42.0894H231.371V59.9272H236.93V53.1515H241.333L246.833 59.9272H252.568C252.568 59.9272 247.011 53.8488 247.008 53.8461ZM245.933 49.2407C245.117 50.0164 244.163 50.1029 243.079 50.138C242.565 50.1569 236.062 50.2083 236.062 50.138L235.917 45.1867H244.052C245.119 45.1867 246.446 45.3894 246.765 46.5975C247.03 47.6002 246.638 48.5704 245.933 49.238V49.2407Z" fill="#1E1E1E"/>
<path d="M310.411 41.8135H316.97L321.789 48.481L326.221 41.8135H333.692L332.867 42.7783L323.875 52.8405V59.927H319.357V52.5054L310.411 41.8135Z" fill="#1E1E1E"/>
<path d="M281.56 59.654C280.03 59.654 278.6 59.427 277.265 58.9729C275.93 58.5189 274.76 57.8811 273.749 57.054C272.741 56.2297 271.954 55.2757 271.395 54.1973C270.833 53.1162 270.554 51.9486 270.554 50.6946C270.554 49.4405 270.838 48.2486 271.411 47.1675C271.981 46.0865 272.776 45.1378 273.795 44.3216C274.814 43.5054 276.006 42.8702 277.37 42.4162C278.735 41.9621 280.214 41.7351 281.803 41.7351C283.576 41.7351 285.206 42.0027 286.695 42.5405C288.181 43.0756 289.416 43.8324 290.395 44.8054L287.581 47.0811C286.908 46.3729 286.073 45.827 285.076 45.4486C284.076 45.0702 282.976 44.8784 281.776 44.8784C280.411 44.8784 279.203 45.1216 278.154 45.6081C277.106 46.0946 276.284 46.7702 275.695 47.6378C275.103 48.5027 274.808 49.5135 274.808 50.6702C274.808 51.827 275.097 52.8432 275.679 53.727C276.26 54.6108 277.054 55.2973 278.062 55.7946C279.07 56.2892 280.227 56.5378 281.533 56.5378C282.838 56.5378 284.03 56.3351 284.987 55.9324C285.943 55.527 286.679 54.9351 287.187 54.1513C287.695 53.3675 287.952 52.4081 287.952 51.2675L290.673 52.7757L281.289 52.7027V49.7838H292.233V50.254C292.233 52.3324 291.773 54.0702 290.857 55.4621C289.941 56.8567 288.681 57.9027 287.081 58.6054C285.481 59.3081 283.643 59.6567 281.565 59.6567L281.56 59.654Z" fill="#1E1E1E"/>
</g>
<defs>
<clipPath id="clip0_1188_1093">
<rect width="334.578" height="60" fill="white"/>
</clipPath>
</defs>
</svg>
