<svg width="48" height="60" viewBox="0 0 48 60" fill="none" xmlns="http://www.w3.org/2000/svg">
<g clip-path="url(#clip0_1188_1140)">
<path d="M39.6767 50.5359C40.3497 51.5413 41.0205 52.5479 41.6962 53.5514C41.7787 53.6741 41.8438 53.8182 42.0512 53.7909C42.2631 53.7633 42.4812 53.7811 42.6966 53.7785C42.8839 53.7762 42.8991 53.762 42.8978 53.5795C42.8835 51.824 42.8688 50.0681 42.8545 48.3126C42.8545 48.2894 42.8612 48.2613 42.8514 48.2434C42.8358 48.2162 42.8086 48.1752 42.7858 48.1752C42.4455 48.1707 42.1056 48.1721 41.7595 48.1721C41.7595 48.8246 41.7551 49.4602 41.7609 50.0953C41.7667 50.7353 41.7818 51.3758 41.7934 52.0497C41.7671 51.9837 41.7582 51.9431 41.7368 51.911C41.4339 51.461 41.128 51.0136 40.826 50.5636C40.322 49.8121 39.8185 49.0605 39.3185 48.3063C39.2565 48.2126 39.1927 48.1667 39.0736 48.173C38.8399 48.1845 38.6058 48.1765 38.3716 48.1765C38.1892 48.1765 38.1883 48.1765 38.1896 48.3625C38.2003 49.87 38.2119 51.378 38.2226 52.8855C38.2244 53.1291 38.2244 53.3726 38.2267 53.6161C38.228 53.8061 38.2289 53.8066 38.4118 53.8061C38.6504 53.8057 38.8894 53.8043 39.1281 53.803C39.3221 53.8016 39.323 53.8012 39.3221 53.6108C39.3154 52.4872 39.3078 51.3637 39.302 50.2402C39.302 50.1822 39.3136 50.1238 39.3198 50.0658C39.4635 50.2219 39.5714 50.378 39.6771 50.5364L39.6767 50.5359Z" fill="black"/>
<path d="M34.499 48.0928C32.8858 48.0857 31.5339 49.2208 31.5259 51.0454C31.5192 52.573 32.6717 53.8749 34.3915 53.92C36.1154 53.9646 37.4021 52.7077 37.4414 51.0115C37.4262 49.4549 36.2487 48.1008 34.499 48.0928ZM36.2452 51.3358C36.164 51.7225 36.0248 52.0672 35.7546 52.3531C35.5084 52.6132 35.2153 52.7809 34.8558 52.8594C34.5561 52.9245 34.2662 52.912 33.9866 52.8308C33.541 52.7019 33.1944 52.4276 32.9581 52.0177C32.7739 51.6979 32.6806 51.3599 32.6958 51.1248C32.7003 50.3055 32.9598 49.7529 33.5446 49.3746C33.888 49.1525 34.2671 49.0812 34.6752 49.1227C35.3456 49.1904 35.8059 49.5593 36.0815 50.1436C36.255 50.5115 36.3353 50.9094 36.2456 51.3358H36.2452Z" fill="black"/>
<path d="M9.42193 53.746C9.4148 51.986 9.41346 50.2256 9.41078 48.4657C9.41078 48.4425 9.41926 48.413 9.40855 48.3965C9.38491 48.3595 9.35191 48.2997 9.32203 48.2993C8.97235 48.2926 8.62268 48.2948 8.25917 48.2948V50.5298H6.13035C6.13035 50.4584 6.13035 50.4027 6.13035 50.3465C6.12857 49.7239 6.12321 49.1012 6.12768 48.4786C6.12857 48.3417 6.09512 48.2864 5.94793 48.2922C5.6723 48.3033 5.39532 48.3029 5.11968 48.2922C4.98499 48.2868 4.94931 48.3372 4.95287 48.4612C4.96313 48.8122 4.96893 49.1632 4.97027 49.5142C4.97562 50.9187 4.97919 52.3232 4.9832 53.7273C4.9832 53.7915 4.9832 53.8553 4.9832 53.9249H6.1415V51.5842H8.25694C8.25917 51.6364 8.26274 51.6778 8.26274 51.7189C8.26408 52.4022 8.26765 53.0859 8.26363 53.7692C8.26319 53.8901 8.29575 53.9329 8.42197 53.9284C8.69315 53.9186 8.96521 53.9182 9.23639 53.9262C9.3751 53.9302 9.42238 53.8896 9.42193 53.7447V53.746Z" fill="black"/>
<path d="M11.3057 53.6575C11.3891 53.3957 11.4904 53.1393 11.5939 52.8846C11.6104 52.8435 11.6786 52.7985 11.7232 52.7981C12.3739 52.7909 13.0247 52.7887 13.675 52.794C13.728 52.794 13.8097 52.8462 13.8288 52.8939C13.9426 53.1736 14.0434 53.4586 14.1455 53.7432C14.1785 53.8355 14.2236 53.889 14.3355 53.8868C14.6629 53.8792 14.9907 53.8832 15.3185 53.8819C15.3551 53.8819 15.3912 53.8756 15.4479 53.8707C15.4349 53.8038 15.4331 53.7507 15.4144 53.7052C15.1985 53.1776 14.976 52.6527 14.7637 52.1237C14.5103 51.4917 14.2682 50.8557 14.017 50.2232C13.7775 49.6202 13.534 49.0194 13.29 48.4186C13.257 48.337 13.2133 48.2768 13.0987 48.2826C12.8418 48.2955 12.584 48.2933 12.3267 48.2862C12.2334 48.2835 12.1911 48.3299 12.1581 48.3986C12.1309 48.4561 12.1117 48.5172 12.0885 48.5765C11.956 48.9128 11.8236 49.2487 11.6902 49.5845C11.5381 49.9676 11.386 50.3508 11.2321 50.733C11.1001 51.0604 10.9641 51.3864 10.8325 51.7142C10.7215 51.9917 10.6171 52.2713 10.5056 52.5483C10.3941 52.8248 10.2759 53.0982 10.1639 53.3747C10.097 53.5402 10.0373 53.7084 9.9668 53.8952C10.0395 53.9015 10.093 53.9109 10.1465 53.9104C10.432 53.9068 10.7174 53.8997 11.0029 53.8957C11.2388 53.8926 11.2326 53.8872 11.3057 53.6589V53.6575ZM12.6737 49.6702C12.9404 50.3985 13.2066 51.1251 13.4774 51.8645H11.9199C12.1741 51.1242 12.4225 50.4012 12.6737 49.6702Z" fill="black"/>
<path d="M4.3839 53.9355C4.42225 53.9355 4.46106 53.9297 4.51592 53.9253C3.75636 52.9779 3.01062 52.0471 2.26756 51.1203C2.93971 50.1872 3.6065 49.2613 4.29692 48.3033C3.89239 48.3033 3.54182 48.3077 3.1917 48.3001C3.09715 48.2979 3.04496 48.3376 2.99769 48.405C2.88172 48.57 2.76665 48.7359 2.6498 48.9005C2.32465 49.359 1.99951 49.817 1.67392 50.2751C1.53744 50.4673 1.40096 50.6591 1.25556 50.8634C1.24128 50.8313 1.23192 50.8192 1.23192 50.8076C1.23103 50.0307 1.22835 49.2537 1.23192 48.4768C1.23236 48.3559 1.19668 48.3095 1.0718 48.314C0.795717 48.3229 0.519189 48.3269 0.243552 48.3198C0.104842 48.3162 0.0713908 48.3684 0.0722828 48.5C0.0803111 49.4968 0.0812031 50.4941 0.0847712 51.4909C0.0874473 52.2304 0.0914614 52.9703 0.0945835 53.7098C0.0954756 53.9351 0.0950296 53.9355 0.313576 53.936C0.570926 53.9364 0.828722 53.9284 1.08607 53.9391C1.22478 53.9449 1.26136 53.8972 1.25957 53.7642C1.24976 53.0435 1.24798 52.3223 1.24351 51.6015C1.24351 51.5529 1.24351 51.5043 1.24351 51.4494C1.35011 51.6006 1.44556 51.7429 1.54814 51.8803C2.02895 52.523 2.51153 53.1644 2.99412 53.8062C3.06013 53.894 3.13551 53.944 3.26039 53.9404C3.63459 53.9293 4.00925 53.9369 4.3839 53.936V53.9355Z" fill="black"/>
<path d="M31.0416 52.5756C31.1281 52.1211 31.0911 51.6916 30.7927 51.3125C30.4448 50.8709 29.9337 50.6948 29.4471 50.4771C29.208 50.3701 28.9663 50.2653 28.7402 50.135C28.5229 50.0097 28.4373 49.7028 28.5377 49.474C28.7179 49.0628 29.3409 48.9317 29.6215 49.2604C29.7156 49.371 29.7704 49.5182 29.8289 49.6547C29.8614 49.73 29.8962 49.7608 29.981 49.7586C30.2196 49.7523 30.4586 49.7555 30.6973 49.7555C30.7936 49.7555 30.8899 49.7555 30.9956 49.7555C30.972 49.4174 30.9038 49.1221 30.7307 48.8536C30.4524 48.4219 30.0358 48.2042 29.551 48.1338C28.9935 48.0526 28.4578 48.1467 27.9926 48.4924C27.3704 48.9544 27.2509 49.5583 27.3892 50.1743C27.5051 50.6912 27.9128 50.9954 28.3735 51.2055C28.7272 51.3669 29.1023 51.4806 29.4582 51.6381C29.8677 51.8196 30.0412 52.0895 29.8619 52.5377C29.7647 52.7812 29.464 52.9694 29.1817 52.961C28.8811 52.9516 28.6443 52.8231 28.5243 52.5364C28.4614 52.3861 28.4257 52.2241 28.3767 52.0645H27.2679C27.2322 52.3571 27.2906 52.626 27.3901 52.8709C27.6679 53.5551 28.225 53.8713 28.9346 53.927C29.1915 53.9471 29.4547 53.9087 29.7129 53.8806C30.0559 53.8436 30.3431 53.6795 30.5898 53.4462C30.84 53.2098 30.9774 52.911 31.0416 52.5756Z" fill="black"/>
<path d="M47.4111 52.0065C47.4004 51.779 47.3419 51.5712 47.2233 51.3732C47.0163 51.0275 46.6903 50.8308 46.3473 50.6618C45.9517 50.4673 45.5436 50.2992 45.1422 50.1159C44.9932 50.0476 44.8773 49.9321 44.8518 49.7715C44.8014 49.4491 44.9116 49.2377 45.1912 49.0914C45.4896 48.9353 45.8696 49.012 46.0329 49.2573C46.1172 49.384 46.1573 49.5401 46.2202 49.6895H47.3312C47.3299 49.379 47.2581 49.1043 47.1109 48.8541C46.8692 48.4429 46.5043 48.206 46.0378 48.1066C45.6011 48.0134 45.1689 48.0258 44.7617 48.1931C44.2533 48.4018 43.871 48.7466 43.7381 49.3162C43.6632 49.6382 43.6668 49.9495 43.7854 50.2564C43.9388 50.6529 44.2412 50.9124 44.6137 51.0837C45.0053 51.2639 45.4125 51.4102 45.8099 51.5792C45.9945 51.6577 46.1787 51.7666 46.2354 51.9668C46.3246 52.283 46.2599 52.5395 45.9789 52.7482C45.7091 52.9485 45.4584 52.9583 45.1721 52.8044C44.9263 52.6724 44.8019 52.4534 44.7814 52.1782C44.772 52.0511 44.7345 51.9873 44.5869 51.994C44.3019 52.0065 44.016 52.0012 43.7306 51.9958C43.6293 51.994 43.5901 52.0324 43.6083 52.1274C43.6538 52.3624 43.6744 52.6073 43.7555 52.8294C43.958 53.3834 44.3924 53.6831 44.95 53.8142C45.313 53.8994 45.6792 53.9003 46.0485 53.8267C46.3692 53.7629 46.6564 53.638 46.895 53.4168C47.3062 53.0359 47.4374 52.5498 47.4115 52.0061L47.4111 52.0065Z" fill="black"/>
<path d="M21.7716 53.7295C21.772 53.8454 21.8059 53.8811 21.9232 53.8793C22.4843 53.8704 23.0458 53.8704 23.6073 53.8668C23.949 53.8646 24.2906 53.8633 24.6318 53.8548C24.676 53.8535 24.7558 53.812 24.7567 53.787C24.7652 53.4757 24.7625 53.1639 24.7625 52.8419H22.8995V48.2471H21.7372C21.7372 48.388 21.7363 48.5182 21.7372 48.6485C21.7493 50.3424 21.7626 52.0364 21.7716 53.7304V53.7295Z" fill="black"/>
<path d="M19.0485 52.9962C19.0507 52.8797 19.0083 52.8414 18.8924 52.8427C18.3915 52.8476 17.8906 52.8445 17.3897 52.845C17.1855 52.845 17.1855 52.8463 17.185 52.646C17.1832 51.2366 17.1797 49.8272 17.1824 48.4183C17.1824 48.2831 17.1449 48.239 17.0084 48.2443C16.7466 48.255 16.4843 48.2474 16.2221 48.2497C16.0361 48.2515 16.0254 48.2639 16.0254 48.4495C16.0263 50.2005 16.0272 51.9516 16.0276 53.7026C16.0276 53.7535 16.0276 53.8043 16.0276 53.8668C16.0646 53.8735 16.0825 53.8793 16.1003 53.8793C17.0414 53.8793 17.9825 53.8775 18.9231 53.8784C19.0235 53.8784 19.0516 53.8333 19.0498 53.741C19.0453 53.493 19.0431 53.2446 19.048 52.9966L19.0485 52.9962Z" fill="black"/>
<path d="M19.5671 53.5238C19.5671 53.5987 19.5715 53.6736 19.5671 53.7481C19.5613 53.8453 19.6014 53.8801 19.6986 53.8783C19.9792 53.8739 20.2597 53.877 20.5407 53.8766C20.6692 53.8766 20.7332 53.8123 20.733 53.6839C20.724 51.9203 20.7151 50.1568 20.7053 48.3933C20.7053 48.3433 20.6999 48.2938 20.6973 48.2434H19.5483C19.5483 48.3099 19.5483 48.3696 19.5483 48.4294C19.5546 50.1274 19.5608 51.8249 19.5671 53.5229V53.5238Z" fill="black"/>
<path d="M14.5292 55.6454C13.5444 55.6583 12.8339 56.4027 12.8723 57.3224C12.784 58.1569 13.5966 59.0824 14.7277 58.9735C15.4485 58.9044 16.3084 58.2563 16.2205 57.1685C16.15 56.2983 15.4534 55.6329 14.5292 55.6449V55.6454ZM15.0368 58.2581C14.577 58.5226 13.8763 58.3563 13.6631 57.834C13.5966 57.6716 13.5565 57.4986 13.5043 57.33C13.5159 57.326 13.5275 57.3224 13.5391 57.3184C13.5346 56.8907 13.7037 56.5561 14.0877 56.3537C14.5587 56.1057 15.1135 56.2702 15.3896 56.7203C15.704 57.2336 15.5502 57.9624 15.0368 58.2577V58.2581Z" fill="black"/>
<path d="M1.85434 55.8119C1.40253 55.7896 0.949823 55.7744 0.497565 55.7575C0.461884 55.7561 0.425757 55.7637 0.384277 55.7677V58.996C0.911912 58.9697 1.43152 58.9541 1.94979 58.9139C2.3008 58.8867 2.57242 58.6878 2.7874 58.4211C2.94886 58.2208 3.0171 57.9795 3.06304 57.724C3.15447 57.2142 3.08132 56.7454 2.77134 56.327C2.54521 56.022 2.24415 55.8306 1.85478 55.8114L1.85434 55.8119ZM2.32667 57.8841C2.21427 58.1593 2.00955 58.3109 1.73258 58.356C1.54079 58.3872 1.34098 58.3769 1.14518 58.3751C1.11306 58.3751 1.0533 58.3216 1.0533 58.2926C1.04973 57.6571 1.05241 57.0215 1.05419 56.3859C1.05419 56.3823 1.0591 56.3788 1.06133 56.3748C1.06579 56.3614 1.07025 56.348 1.07471 56.3351C1.3276 56.36 1.58584 56.3627 1.83248 56.4167C2.11749 56.4787 2.28296 56.6972 2.36324 56.9671C2.45467 57.2735 2.45066 57.579 2.32667 57.8836V57.8841Z" fill="black"/>
<path d="M23.3943 57.6357C23.6423 57.5099 23.8046 57.311 23.8563 57.0344C23.8737 56.9421 23.9469 56.8458 23.8604 56.7503C23.9567 56.6071 23.8617 56.4738 23.822 56.3498C23.6806 55.9087 23.3385 55.7191 22.9005 55.6977C22.5036 55.6785 22.1053 55.6937 21.7074 55.6821C21.5727 55.6781 21.5464 55.7267 21.5469 55.8503C21.5522 56.8145 21.5509 57.7788 21.5518 58.7427C21.5518 58.789 21.5558 58.835 21.5589 58.9023C21.7297 58.9023 21.8832 58.9023 22.037 58.9023C22.219 58.9023 22.2199 58.9019 22.2195 58.7132C22.2186 57.9644 22.2172 57.2155 22.2163 56.4667C22.2163 56.4118 22.2163 56.3574 22.2163 56.2887C22.3952 56.2887 22.5549 56.2914 22.715 56.2882C22.9679 56.2833 23.1338 56.4047 23.2212 56.6357C23.3153 56.8859 23.1797 57.3172 22.8448 57.3426C22.6891 57.3547 22.5348 57.3863 22.3693 57.4104C22.3912 57.455 22.4081 57.4965 22.4309 57.5349C22.6789 57.9577 22.9277 58.3801 23.1775 58.8015C23.1971 58.835 23.2257 58.889 23.2511 58.8898C23.4679 58.897 23.6846 58.8939 23.9348 58.8939C23.6721 58.4603 23.4295 58.0598 23.194 57.6713C23.2649 57.6593 23.3376 57.6633 23.3938 57.6348L23.3943 57.6357Z" fill="black"/>
<path d="M46.8963 55.5901C46.8704 55.5825 46.862 55.5781 46.853 55.5776C46.7456 55.5758 46.6381 55.574 46.5301 55.5732C46.3317 55.5709 46.333 55.5709 46.3334 55.7761C46.3343 56.078 46.3334 56.38 46.3334 56.6726C46.3044 56.6378 46.2768 56.5919 46.238 56.5602C45.8834 56.2712 45.4097 56.256 45.0199 56.4536C44.6948 56.6186 44.4959 56.88 44.4071 57.2426C44.3322 57.5494 44.354 57.8353 44.4673 58.1248C44.5645 58.3723 44.7269 58.5454 44.9539 58.6899C45.2652 58.8884 45.5868 58.8973 45.916 58.8076C46.0712 58.7653 46.2063 58.6502 46.3544 58.5659C46.3584 58.6279 46.3633 58.7006 46.3691 58.7898C46.502 58.7898 46.6323 58.7813 46.7616 58.792C46.8861 58.8023 46.9208 58.7595 46.9199 58.6355C46.9128 57.6667 46.9128 56.698 46.9097 55.7293C46.9097 55.6806 46.9008 55.6316 46.8963 55.5892V55.5901ZM45.6635 58.3036C45.2733 58.3103 44.9446 57.9455 44.953 57.5816C44.9611 57.2488 45.2354 56.8818 45.6617 56.8827C46.0359 56.8835 46.4079 57.1922 46.3611 57.5918C46.4159 57.9923 46.0003 58.2974 45.6631 58.3032L45.6635 58.3036Z" fill="black"/>
<path d="M31.5367 55.7076C31.0109 55.642 30.4774 55.6358 29.9471 55.605C29.9431 55.6219 29.9391 55.6389 29.9346 55.6554C29.9333 55.6598 29.9302 55.6643 29.9302 55.6688C29.9311 56.6986 29.9311 57.728 29.9373 58.7579C29.9373 58.79 30.0011 58.8466 30.0381 58.8493C30.1826 58.86 30.3285 58.8475 30.473 58.8551C30.5787 58.8604 30.6126 58.8212 30.6099 58.7182C30.6037 58.4702 30.6054 58.2217 30.6054 57.9738C30.6054 57.736 30.5836 57.7681 30.8124 57.7574C31.0439 57.7467 31.2776 57.7365 31.5055 57.6981C31.7312 57.6598 31.9154 57.5273 32.0354 57.3319C32.2548 56.9742 32.299 56.6085 32.1139 56.208C31.9903 55.9404 31.8048 55.7415 31.5363 55.708L31.5367 55.7076ZM31.204 57.1411C31.0425 57.1593 30.878 57.1495 30.7147 57.154C30.6425 57.1558 30.6014 57.1339 30.6019 57.0514C30.6045 56.7905 30.6028 56.5291 30.6028 56.2151C30.8646 56.2459 31.1081 56.2606 31.3445 56.3079C31.4703 56.3333 31.5528 56.4404 31.5612 56.5818C31.5648 56.6424 31.5626 56.7031 31.5648 56.7637C31.5737 56.9939 31.3918 57.1201 31.204 57.1415V57.1411Z" fill="black"/>
<path d="M18.2142 55.7596C17.7004 55.7066 17.1816 55.6968 16.6509 55.6682V58.9103C16.8391 58.9103 17.0157 58.9054 17.1919 58.9121C17.2891 58.9156 17.3235 58.8849 17.3208 58.7858C17.3145 58.5147 17.3172 58.2431 17.3172 57.9719C17.3172 57.9228 17.3221 57.8738 17.3239 57.8425C17.6214 57.8149 17.9011 57.8064 18.1745 57.76C18.6722 57.6757 18.8885 57.2681 18.9367 56.8724C18.9621 56.6642 18.9224 56.4657 18.831 56.2668C18.7034 55.9889 18.5085 55.7904 18.2142 55.7601V55.7596ZM18.2503 56.9634C18.1959 57.1204 18.0469 57.1878 17.893 57.2043C17.7316 57.2217 17.567 57.2136 17.4042 57.2065C17.3734 57.2052 17.3199 57.1566 17.3195 57.1285C17.3132 56.8591 17.3154 56.5897 17.3154 56.2717C17.5795 56.3029 17.8185 56.3194 18.0523 56.3627C18.1843 56.3872 18.2623 56.4987 18.2721 56.6334C18.2802 56.7431 18.2851 56.8626 18.2503 56.9634Z" fill="black"/>
<path d="M21.0822 58.4094C21.0845 58.3251 21.0528 58.2943 20.9667 58.2961C20.7419 58.301 20.5171 58.2979 20.2928 58.2979C20.0573 58.2979 19.9388 58.1804 19.9373 57.9455C19.9358 57.6958 20.061 57.5709 20.3129 57.5709C20.5595 57.5709 20.8057 57.5709 21.0653 57.5709C21.0653 57.3983 21.0657 57.2444 21.0653 57.0905C21.0653 57.054 21.0595 57.0174 21.0559 56.9701C20.9984 56.9701 20.9475 56.9701 20.8967 56.9701C20.6157 56.9701 20.3347 56.9697 20.0537 56.9701C19.9877 56.9701 19.9315 56.9674 19.9324 56.8778C19.9346 56.6771 19.9329 56.4764 19.9329 56.2645C19.9583 56.2725 19.9739 56.2824 19.9895 56.2824C20.3213 56.285 20.6536 56.2895 20.9855 56.2828C21.0153 56.2824 21.0648 56.2105 21.0693 56.1682C21.0809 56.0571 21.0648 55.9434 21.0738 55.8314C21.0836 55.7088 21.0305 55.6834 20.919 55.6851C20.465 55.6914 20.0109 55.6901 19.5564 55.6909C19.4592 55.6909 19.362 55.6909 19.2554 55.6909C19.2554 55.7677 19.2554 55.8274 19.2554 55.8872C19.2572 56.8426 19.2594 57.7975 19.2607 58.7528C19.2607 58.8349 19.2509 58.9112 19.3767 58.9098C19.9106 58.9058 20.444 58.9067 20.9779 58.9098C21.0591 58.9098 21.0854 58.8782 21.0831 58.8023C21.08 58.6712 21.0782 58.5401 21.0818 58.4089L21.0822 58.4094Z" fill="black"/>
<path d="M25.7525 57.1419C25.504 57.0175 25.2467 56.9109 24.9969 56.7891C24.8368 56.7111 24.7909 56.5978 24.8274 56.4212C24.852 56.303 24.9983 56.1883 25.1334 56.1821C25.3983 56.1696 25.4987 56.2508 25.5696 56.5416H26.2177C26.2346 56.3248 26.1686 56.1486 26.0495 55.9863C25.7886 55.6317 25.2538 55.5171 24.7833 55.6861C24.4675 55.7994 24.1245 56.0661 24.1504 56.633C24.1669 56.9885 24.4372 57.2597 24.777 57.3975C24.9978 57.4871 25.2222 57.5723 25.4313 57.6852C25.6334 57.794 25.6673 57.9773 25.5535 58.1669C25.4438 58.3497 25.1972 58.4157 25.0183 58.3247C24.8341 58.2311 24.7797 58.0678 24.7538 57.8774H24.116C24.059 58.2266 24.2623 58.6191 24.5688 58.7931C24.8453 58.95 25.1428 58.9371 25.4398 58.9112C25.9291 58.8689 26.2217 58.4991 26.2743 58.0732C26.3278 57.637 26.1338 57.3333 25.7525 57.1424V57.1419Z" fill="black"/>
<path d="M3.53556 55.7651V58.9563H5.34236V58.3618H4.20636V57.6388C4.2639 57.6388 4.3143 57.6388 4.36425 57.6388C4.64034 57.6388 4.91642 57.6379 5.1925 57.6392C5.26431 57.6392 5.33255 57.6326 5.33166 57.5434C5.33032 57.3734 5.31962 57.2039 5.31248 57.0224H4.20681V56.3663C4.24338 56.3632 4.27059 56.3596 4.2978 56.3592C4.60644 56.3561 4.91553 56.3561 5.22417 56.3476C5.26654 56.3462 5.34236 56.3061 5.3437 56.2798C5.3544 56.109 5.3495 55.9373 5.3495 55.7646H3.53467L3.53556 55.7651Z" fill="black"/>
<path d="M10.5254 55.7258C10.0295 55.7352 9.53351 55.7405 9.03754 55.7361C8.89838 55.7347 8.86582 55.782 8.86672 55.9132C8.87296 56.8725 8.87162 57.8319 8.87296 58.7913C8.87296 58.8145 8.86404 58.8452 8.87564 58.86C8.90418 58.897 8.94165 58.955 8.97599 58.9554C9.50942 58.9599 10.0429 58.9585 10.5763 58.9518C10.6138 58.9518 10.6815 58.9046 10.6829 58.8765C10.6931 58.7065 10.6878 58.5353 10.6878 58.3475H9.55135V57.5768C9.59907 57.5928 9.63297 57.6147 9.66731 57.6147C9.96213 57.6156 10.2569 57.6183 10.5513 57.6049C10.5946 57.6031 10.6615 57.5237 10.6699 57.472C10.6882 57.3627 10.6717 57.2481 10.6757 57.1361C10.6789 57.0487 10.6374 57.0224 10.5567 57.0233C10.3461 57.026 10.1356 57.0246 9.92511 57.0251C9.80067 57.0251 9.67668 57.0251 9.53797 57.0251C9.53797 56.8333 9.53797 56.6607 9.53797 56.4885C9.53797 56.3119 9.53841 56.311 9.72128 56.311C10.0384 56.3106 10.3555 56.311 10.6896 56.311C10.6896 56.1531 10.6811 56.022 10.6918 55.8922C10.703 55.7597 10.6521 55.724 10.5254 55.7263V55.7258Z" fill="black"/>
<path d="M8.42033 55.7427C8.27047 55.7449 8.12061 55.7507 7.9712 55.7427C7.88021 55.7373 7.83159 55.7761 7.80394 55.8524C7.77094 55.9434 7.74105 56.0361 7.71206 56.1285C7.64828 56.3336 7.58941 56.5401 7.52161 56.7444C7.44802 56.9665 7.36506 57.1855 7.29058 57.4072C7.221 57.6141 7.15722 57.8229 7.08229 58.0575C7.04393 58.0124 7.01182 57.9906 7.00156 57.9607C6.87623 57.5914 6.75224 57.2212 6.63092 56.8506C6.52477 56.5272 6.42576 56.2012 6.31425 55.8796C6.29686 55.8292 6.23353 55.7627 6.18759 55.7596C5.99758 55.7462 5.80624 55.7538 5.59082 55.7538C5.60197 55.8185 5.60331 55.8609 5.61669 55.8992C5.66798 56.0446 5.72462 56.1882 5.77636 56.3332C5.90303 56.6882 6.02568 57.0446 6.15369 57.3992C6.33076 57.8889 6.50916 58.3782 6.69337 58.8652C6.70987 58.9089 6.77186 58.9607 6.81557 58.9638C6.98328 58.9754 7.15231 58.9714 7.32046 58.9651C7.35257 58.9638 7.40164 58.9339 7.41234 58.9054C7.53945 58.5659 7.66255 58.2252 7.78342 57.8835C7.89403 57.5722 7.99929 57.2596 8.10991 56.9487C8.2388 56.5861 8.37127 56.2244 8.50061 55.8618C8.52604 55.7908 8.5082 55.7427 8.41944 55.744L8.42033 55.7427Z" fill="black"/>
<path d="M37.6234 55.5879C37.6234 55.7783 37.6208 55.9697 37.6261 56.161C37.627 56.1904 37.6591 56.2283 37.6872 56.2462C38.1288 56.5218 38.3875 56.9299 38.4606 57.4312C38.4994 57.6997 38.4593 57.987 38.4138 58.259C38.3406 58.7006 38.0708 59.0217 37.7113 59.2742C37.6747 59.3 37.6315 59.3473 37.6292 59.3866C37.6208 59.5725 37.6252 59.7585 37.6252 59.9476C38.362 59.7862 39.2224 58.8174 39.1399 57.536C39.0873 56.719 38.1988 55.5531 37.6226 55.5874L37.6234 55.5879Z" fill="black"/>
<path d="M29.4154 59.2887C28.9806 59.0188 28.7281 58.6107 28.659 58.1228C28.5524 57.3708 28.7638 56.7232 29.4315 56.2807C29.4596 56.262 29.4962 56.2277 29.4966 56.1996C29.5024 56.0011 29.4997 55.8022 29.4997 55.5952C28.5796 55.8958 27.9819 56.8177 27.9868 57.8003C27.9918 58.8418 28.6362 59.7043 29.5078 60.0005C29.5078 59.8176 29.5011 59.6423 29.5104 59.4684C29.5149 59.3814 29.4823 59.3306 29.4154 59.2891V59.2887Z" fill="black"/>
<path d="M42.7663 58.3466C42.7676 58.24 42.7101 58.191 42.611 58.1941C42.3827 58.2003 42.1539 58.2061 41.926 58.2235C41.7253 58.2392 41.7061 58.2293 41.7052 58.0322C41.7025 57.2833 41.7003 56.5349 41.6972 55.7861C41.6963 55.5858 41.6954 55.5858 41.4898 55.5867C41.3867 55.5872 41.2837 55.5943 41.1811 55.5872C41.0612 55.5791 41.0188 55.6197 41.0206 55.7459C41.0277 56.2276 41.0232 56.7098 41.0232 57.1915C41.0259 57.1915 41.0281 57.1915 41.0308 57.1915C41.0308 57.6781 41.0331 58.1647 41.029 58.6513C41.0281 58.7588 41.0647 58.8056 41.1731 58.8047C41.6597 58.8011 42.1463 58.7993 42.6329 58.7993C42.7239 58.7993 42.7734 58.7708 42.7676 58.6696C42.7614 58.5621 42.7645 58.4546 42.7658 58.3466H42.7663Z" fill="black"/>
<path d="M12.7638 58.3407C12.5395 58.3456 12.3147 58.3452 12.0903 58.3456C11.821 58.3456 11.8446 58.3746 11.8441 58.0954C11.8428 57.3564 11.8392 56.6169 11.8441 55.8779C11.845 55.7463 11.8031 55.7044 11.676 55.7146C11.5551 55.7249 11.4325 55.7231 11.3112 55.7173C11.2063 55.7124 11.1729 55.7552 11.1733 55.8569C11.1765 56.8395 11.1769 57.822 11.1751 58.8041C11.1751 58.8942 11.2023 58.9277 11.2951 58.9255C11.5337 58.9197 11.7723 58.9214 12.011 58.9214C12.2955 58.9214 12.5796 58.9214 12.8851 58.9214C12.8851 58.7511 12.8811 58.6066 12.8865 58.4625C12.8896 58.3706 12.8539 58.3385 12.7638 58.3403V58.3407Z" fill="black"/>
<path d="M34.1767 56.4399C34.063 56.4363 34.0099 56.4929 33.9796 56.596C33.9198 56.798 33.8551 56.9987 33.7865 57.1981C33.6848 57.4942 33.5782 57.789 33.4751 58.0807C33.4238 57.9197 33.3748 57.7552 33.319 57.5928C33.2071 57.2668 33.0795 56.9452 32.9823 56.6151C32.9377 56.4639 32.8525 56.4443 32.7276 56.4532C32.6951 56.4555 32.6621 56.4555 32.6295 56.4559C32.4065 56.4595 32.3341 56.5662 32.4123 56.7761C32.654 57.4215 32.8953 58.0669 33.1393 58.7114C33.1732 58.8015 33.2245 58.8671 33.3436 58.8523C33.4542 58.839 33.5684 58.8555 33.6799 58.8461C33.7218 58.8425 33.7798 58.8113 33.7976 58.7765C33.8471 58.6793 33.881 58.5736 33.9185 58.4706C34.0759 58.0393 34.2329 57.6075 34.3899 57.1758C34.4755 56.9403 34.5607 56.7048 34.6566 56.4403C34.4809 56.4403 34.3288 56.4439 34.1772 56.439L34.1767 56.4399Z" fill="black"/>
<path d="M43.7541 56.4054V55.5727C43.5988 55.5727 43.4588 55.579 43.3196 55.5709C43.2099 55.5642 43.1827 55.6115 43.1854 55.7105C43.1907 55.9023 43.1836 56.0941 43.1899 56.2859C43.193 56.3845 43.1564 56.421 43.0596 56.4148C42.9726 56.409 42.8852 56.4135 42.7818 56.4135C42.7818 56.5437 42.784 56.6548 42.7809 56.7658C42.7786 56.8452 42.8143 56.8746 42.8906 56.872C42.9829 56.8688 43.0757 56.8711 43.1916 56.8711C43.1916 56.9464 43.1916 57.0022 43.1916 57.0575C43.1939 57.5909 43.1992 58.1244 43.197 58.6574C43.1965 58.7684 43.2318 58.8077 43.3419 58.7978C43.4396 58.7894 43.5386 58.7903 43.6363 58.7965C43.7572 58.8045 43.8013 58.759 43.7987 58.6351C43.7884 58.1489 43.7866 57.6623 43.7808 57.1757C43.7773 56.88 43.7773 56.8818 44.064 56.8613C44.1015 56.8586 44.1671 56.8274 44.1689 56.8051C44.1791 56.6771 44.1738 56.5482 44.1738 56.4045H43.7536L43.7541 56.4054Z" fill="black"/>
<path d="M35.89 56.4317C35.7607 56.4317 35.6958 56.3672 35.6955 56.2382C35.6955 56.0393 35.6955 55.8399 35.6955 55.6271C35.531 55.6271 35.3914 55.632 35.2522 55.6254C35.1452 55.6205 35.1135 55.6659 35.1157 55.7663C35.1202 55.9857 35.1171 56.2052 35.1171 56.4362C35.0582 56.4362 35.0167 56.4362 34.9748 56.4362C34.713 56.434 34.7116 56.434 34.7134 56.6895C34.7148 56.9415 34.684 56.9139 34.9418 56.9054C35.0827 56.901 35.1273 56.942 35.1251 57.0861C35.118 57.5446 35.1251 58.0031 35.1269 58.4616C35.1278 58.7205 35.2562 58.85 35.5122 58.85C35.7312 58.85 35.7339 58.85 35.7299 58.6337C35.7205 58.1105 35.7116 57.5874 35.6951 57.0642C35.6911 56.9384 35.7352 56.8952 35.8561 56.9059C35.9377 56.913 36.0202 56.9072 36.0974 56.9072V56.4309C36.0198 56.4309 35.9547 56.4309 35.89 56.4309V56.4317Z" fill="black"/>
<path d="M36.778 58.1741C36.5811 58.1747 36.483 58.2737 36.4836 58.4711C36.4836 58.5318 36.4832 58.5924 36.4836 58.6526C36.4858 58.8012 36.526 58.8413 36.674 58.8422C36.7717 58.8426 36.8698 58.8418 36.9675 58.8418C37.0701 58.8418 37.1209 58.7864 37.1267 58.6879C37.1299 58.6321 37.1276 58.5759 37.1272 58.5202C37.1254 58.2891 37.0087 58.1738 36.7771 58.1741H36.778Z" fill="black"/>
<path d="M47.1175 37.6918C46.3205 36.1887 44.3941 35.5808 42.7095 35.8185C41.0249 36.0563 39.5196 36.9621 38.0674 37.8483C37.5376 36.1307 36.4283 34.5371 34.8311 33.7129C33.2335 32.8887 31.131 32.9632 29.7658 34.1326C31.0779 33.634 32.6033 34.2022 33.6184 35.1718C34.6336 36.141 35.2459 37.4469 35.8351 38.7207C34.7147 39.3822 33.5538 40.0574 32.263 40.2211C30.9722 40.3844 29.5057 39.9004 28.9108 38.7435C28.5696 38.0803 28.5557 37.3029 28.5495 36.5571C28.4456 24.3716 28.3439 17.2454 28.24 5.05981C28.2386 5.0665 28.2368 5.07275 28.2355 5.07944C25.4577 16.8582 27.2868 24.1183 26.7842 36.2101C26.6985 38.268 26.5393 40.3505 25.8747 42.3C25.7851 42.5623 25.6348 42.8642 25.3587 42.891C25.03 42.9231 24.8257 42.5493 24.7245 42.2349C24.2834 40.8643 24.0519 39.4263 24.0412 37.9862C23.63 37.7587 23.3699 38.4589 23.3824 38.929C23.4185 40.3277 23.0403 41.7349 22.3066 42.9267C21.0502 42.0743 20.8977 40.3144 20.8714 38.7961C20.6452 25.8733 20.5614 18.0076 20.6171 5.08301C18.8148 10.3116 18.8286 10.9073 18.863 16.4375C18.9044 23.0955 18.9459 29.7541 18.9874 36.4126C18.9919 37.1334 18.991 37.8809 18.6908 38.5361C18.1377 39.7439 16.6762 40.3179 15.3506 40.2336C14.0246 40.1493 12.7967 39.5419 11.6094 38.946C12.1567 37.6731 12.7254 36.3676 13.7004 35.3832C14.6753 34.3989 16.1646 33.795 17.4736 34.2495C16.1931 33.0194 14.0799 32.9328 12.5144 33.77C10.9485 34.6072 9.89764 36.2079 9.37268 37.9041C8.10467 37.4889 6.91693 36.8533 5.64579 36.4487C4.37465 36.0442 2.95098 35.8877 1.73291 36.4322C-0.285298 37.335 -0.414196 39.5026 0.698162 41.1627C1.78599 42.7862 3.7034 43.8664 5.67211 43.828C8.19208 43.7785 10.5644 41.895 11.1835 39.4518C13.9555 40.5717 17.2056 41.6698 19.7991 40.1841C19.8883 41.0066 19.9887 41.8629 20.4396 42.5565C20.8905 43.25 21.8062 43.7165 22.564 43.3856C23.3958 43.023 23.6233 41.9686 23.7156 41.0659C23.8985 42.0226 24.224 43.1474 25.154 43.4373C25.9234 43.6773 26.7659 43.1684 27.1758 42.4744C27.5857 41.7808 27.6646 40.9472 27.7342 40.1444C30.3554 41.6363 33.911 41.2581 36.1598 39.2484C37.1669 42.3602 40.8711 44.3057 44.0043 43.3687C45.1871 43.015 46.2839 42.2835 46.9248 41.2282C47.5662 40.173 47.6964 38.7836 47.1179 37.6931L47.1175 37.6918ZM7.93697 38.0031C7.54269 39.0459 7.07304 40.0802 6.43212 40.9963C5.94016 41.7001 5.30058 42.4115 4.46698 42.7041C3.3515 43.0948 2.04914 42.3232 1.48894 41.3558C1.06925 40.631 0.796285 39.6351 1.03892 38.8099C1.2539 38.0794 1.86404 37.5308 2.48802 37.1356C3.54596 36.4657 4.86125 36.6735 5.98209 37.0553C6.11411 37.1004 7.99495 37.8483 7.93652 38.0036L7.93697 38.0031ZM45.7986 41.3553C45.2384 42.3227 43.9361 43.0948 42.8206 42.7036C41.9874 42.4115 41.3479 41.6997 40.8555 40.9959C40.2145 40.0793 39.7453 39.0454 39.3506 38.0027C39.2922 37.8479 41.173 37.0999 41.305 37.0544C42.4259 36.6726 43.7412 36.4648 44.7991 37.1347C45.4231 37.5299 46.0332 38.078 46.2482 38.8091C46.4908 39.6342 46.2179 40.6301 45.7982 41.3549L45.7986 41.3553Z" fill="black"/>
<path d="M23.5037 45.4146L22.0649 43.9758L20.6262 45.4146L22.0649 46.8534L23.5037 45.4146Z" fill="black"/>
<path d="M27.2517 45.4143L25.813 43.9756L24.3742 45.4143L25.813 46.8531L27.2517 45.4143Z" fill="black"/>
<path d="M33.6643 31.4087L32.2256 29.97L30.7868 31.4087L32.2256 32.8475L33.6643 31.4087Z" fill="black"/>
<path d="M16.6253 31.409L15.1865 29.9702L13.7478 31.409L15.1865 32.8477L16.6253 31.409Z" fill="black"/>
</g>
<defs>
<clipPath id="clip0_1188_1140">
<rect width="47.4862" height="60" fill="white"/>
</clipPath>
</defs>
</svg>
