<svg width="60" height="60" viewBox="0 0 60 60" fill="none" xmlns="http://www.w3.org/2000/svg">
<circle cx="30" cy="30" r="30" fill="#FFEE00"/>
<path d="M9 33.0483L18.467 19.1539H20.5158L11.0488 33.0483H9ZM9 34.2022V33.0483L10.4836 32.6244H20.3274V34.2022H9ZM9.44745 19.5778V18H20.5158V19.1539L19.0086 19.5778H9.44745Z" fill="#58595B"/>
<path d="M24.9534 34.4377C23.8858 34.4377 22.9124 34.1787 22.0332 33.6606C21.1697 33.1425 20.4789 32.4439 19.9608 31.5647C19.4584 30.6855 19.2072 29.7042 19.2072 28.6209C19.2072 27.5534 19.4584 26.5878 19.9608 25.7243C20.4789 24.8608 21.1697 24.1779 22.0332 23.6755C22.9124 23.1574 23.8858 22.8983 24.9534 22.8983C26.0367 22.8983 27.0101 23.1495 27.8736 23.6519C28.737 24.1543 29.42 24.8451 29.9224 25.7243C30.4405 26.5878 30.6995 27.5534 30.6995 28.6209C30.6995 29.7199 30.4405 30.709 29.9224 31.5882C29.42 32.4517 28.737 33.1425 27.8736 33.6606C27.0101 34.1787 26.0367 34.4377 24.9534 34.4377ZM24.9534 32.8363C25.7384 32.8363 26.4292 32.6558 27.0258 32.2947C27.6381 31.9336 28.1169 31.4312 28.4623 30.7875C28.8234 30.1438 29.0039 29.4216 29.0039 28.6209C29.0039 27.8202 28.8234 27.1138 28.4623 26.5015C28.1169 25.8735 27.6381 25.3789 27.0258 25.0178C26.4292 24.6567 25.7384 24.4762 24.9534 24.4762C24.1841 24.4762 23.4933 24.6567 22.881 25.0178C22.2687 25.3789 21.7899 25.8735 21.4445 26.5015C21.0991 27.1138 20.9264 27.8202 20.9264 28.6209C20.9264 29.4373 21.0991 30.1674 21.4445 30.8111C21.7899 31.4391 22.2687 31.9336 22.881 32.2947C23.4933 32.6558 24.1841 32.8363 24.9534 32.8363Z" fill="#58595B"/>
<path d="M35.9004 34.4377C34.7857 34.4377 33.7888 34.1865 32.9096 33.6841C32.0304 33.1817 31.3318 32.491 30.8137 31.6118C30.3113 30.7326 30.0601 29.7435 30.0601 28.6445C30.0601 27.5612 30.3113 26.5878 30.8137 25.7243C31.3161 24.8451 31.999 24.1543 32.8625 23.6519C33.726 23.1495 34.6915 22.8983 35.7591 22.8983C36.7639 22.8983 37.651 23.126 38.4202 23.5813C39.2052 24.0366 39.8175 24.6724 40.2571 25.4888C40.7124 26.2895 40.9401 27.2158 40.9401 28.2677C40.9401 28.3933 40.9322 28.5424 40.9165 28.7151C40.9008 28.8721 40.8694 29.0605 40.8223 29.2803H31.2376V27.8673H39.9274L39.3387 28.3854C39.3544 27.5691 39.2131 26.8704 38.9148 26.2895C38.6322 25.6929 38.2161 25.2376 37.6667 24.9236C37.1329 24.5939 36.4813 24.4291 35.712 24.4291C34.9113 24.4291 34.2127 24.6018 33.6161 24.9472C33.0195 25.2926 32.5485 25.7793 32.2031 26.4073C31.8734 27.0196 31.7086 27.7496 31.7086 28.5974C31.7086 29.4452 31.8813 30.1909 32.2267 30.8346C32.5878 31.4783 33.0823 31.9807 33.7103 32.3418C34.354 32.7029 35.0919 32.8834 35.924 32.8834C36.5991 32.8834 37.2192 32.7657 37.7844 32.5302C38.3496 32.279 38.8284 31.9101 39.2209 31.4234L40.2807 32.5067C39.7626 33.1189 39.1189 33.5978 38.3496 33.9432C37.596 34.2729 36.7796 34.4377 35.9004 34.4377Z" fill="#58595B"/>
<path d="M44.4434 34.2493L39.5921 23.1338H41.4054L45.3147 32.4125H44.6318L48.753 23.1338H50.5898L45.3853 34.2493H44.4434ZM41.429 38.8651L44.4669 32.5773L45.3853 34.2493L43.2423 38.8651H41.429Z" fill="#58595B"/>
<path d="M9.90533 41.511C9.73504 41.511 9.58966 41.4799 9.4692 41.4176C9.34875 41.3553 9.2418 41.2649 9.14834 41.1465L9.34771 40.9472C9.41625 41.0427 9.49516 41.1154 9.58447 41.1652C9.67377 41.213 9.78384 41.2369 9.91468 41.2369C10.0434 41.2369 10.1462 41.2088 10.2231 41.1528C10.302 41.0967 10.3415 41.0198 10.3415 40.9222C10.3415 40.8412 10.3228 40.7758 10.2854 40.726C10.248 40.6761 10.1971 40.6356 10.1327 40.6045C10.0704 40.5713 10.0019 40.5422 9.92714 40.5173C9.85237 40.4903 9.77761 40.4622 9.70285 40.4332C9.62808 40.402 9.55955 40.3646 9.49724 40.321C9.43494 40.2753 9.38406 40.2161 9.3446 40.1434C9.30721 40.0708 9.28852 39.9794 9.28852 39.8693C9.28852 39.7468 9.3176 39.6429 9.37575 39.5578C9.43598 39.4706 9.51697 39.4041 9.61873 39.3584C9.72257 39.3106 9.83888 39.2868 9.96764 39.2868C10.1089 39.2868 10.2355 39.3148 10.3477 39.3709C10.4598 39.4249 10.5512 39.4965 10.6218 39.5858L10.4225 39.7852C10.3581 39.7104 10.2885 39.6544 10.2137 39.617C10.1411 39.5796 10.0569 39.5609 9.96141 39.5609C9.84511 39.5609 9.75269 39.5869 9.68415 39.6388C9.61562 39.6886 9.58135 39.7592 9.58135 39.8506C9.58135 39.9233 9.60004 39.9825 9.63743 40.0282C9.67689 40.0718 9.72777 40.1092 9.79007 40.1403C9.85237 40.1715 9.92091 40.2006 9.99567 40.2276C10.0725 40.2525 10.1483 40.2805 10.2231 40.3117C10.2978 40.3428 10.3664 40.3823 10.4287 40.43C10.491 40.4778 10.5408 40.5401 10.5782 40.617C10.6177 40.6917 10.6374 40.7862 10.6374 40.9004C10.6374 41.0915 10.5709 41.241 10.438 41.349C10.3072 41.457 10.1296 41.511 9.90533 41.511Z" fill="#58595B"/>
<path d="M10.9853 41.4799V40.0001H11.2657V41.4799H10.9853ZM11.1255 39.7042C11.0736 39.7042 11.031 39.6876 10.9978 39.6544C10.9646 39.619 10.948 39.5754 10.948 39.5235C10.948 39.4737 10.9646 39.4321 10.9978 39.3989C11.031 39.3636 11.0736 39.3459 11.1255 39.3459C11.1774 39.3459 11.22 39.3636 11.2532 39.3989C11.2865 39.4321 11.3031 39.4737 11.3031 39.5235C11.3031 39.5754 11.2865 39.619 11.2532 39.6544C11.22 39.6876 11.1774 39.7042 11.1255 39.7042Z" fill="#58595B"/>
<path d="M11.6789 41.4799V40.0001H11.9592V41.4799H11.6789ZM12.6789 41.4799V40.5858C12.6789 40.4757 12.6446 40.3895 12.5761 40.3272C12.5096 40.2629 12.4255 40.2307 12.3237 40.2307C12.2552 40.2307 12.1939 40.2452 12.1399 40.2743C12.0859 40.3034 12.0423 40.3439 12.0091 40.3958C11.9759 40.4477 11.9592 40.51 11.9592 40.5827L11.844 40.5266C11.844 40.4145 11.8679 40.3169 11.9156 40.2338C11.9655 40.1507 12.033 40.0863 12.1181 40.0406C12.2033 39.9929 12.2988 39.969 12.4047 39.969C12.5086 39.969 12.602 39.9918 12.6851 40.0375C12.7702 40.0832 12.8367 40.1476 12.8845 40.2307C12.9343 40.3137 12.9592 40.4124 12.9592 40.5266V41.4799H12.6789ZM13.6788 41.4799V40.5858C13.6788 40.4757 13.6446 40.3895 13.576 40.3272C13.5096 40.2629 13.4265 40.2307 13.3268 40.2307C13.2583 40.2307 13.196 40.2452 13.1399 40.2743C13.0859 40.3034 13.0423 40.3439 13.0091 40.3958C12.9758 40.4477 12.9592 40.51 12.9592 40.5827L12.8004 40.5266C12.8066 40.4124 12.8367 40.3148 12.8907 40.2338C12.9468 40.1507 13.0184 40.0863 13.1056 40.0406C13.1929 39.9929 13.2884 39.969 13.3922 39.969C13.5002 39.969 13.5968 39.9918 13.682 40.0375C13.7671 40.0832 13.8346 40.1476 13.8844 40.2307C13.9364 40.3137 13.9623 40.4134 13.9623 40.5297V41.4799H13.6788Z" fill="#58595B"/>
<path d="M15.1226 41.511C15.0105 41.511 14.9087 41.4882 14.8173 41.4425C14.728 41.3947 14.6564 41.3293 14.6024 41.2462C14.5484 41.1631 14.5183 41.0687 14.5121 40.9627V40.5173C14.5183 40.4093 14.5484 40.3148 14.6024 40.2338C14.6585 40.1507 14.7312 40.0863 14.8205 40.0406C14.9118 39.9929 15.0126 39.969 15.1226 39.969C15.2576 39.969 15.3791 40.0033 15.4871 40.0718C15.5972 40.1403 15.6834 40.2327 15.7457 40.349C15.808 40.4653 15.8391 40.5962 15.8391 40.7416C15.8391 40.8869 15.808 41.0178 15.7457 41.1341C15.6834 41.2504 15.5972 41.3428 15.4871 41.4113C15.3791 41.4778 15.2576 41.511 15.1226 41.511ZM15.0759 41.2462C15.1694 41.2462 15.2514 41.2244 15.322 41.1808C15.3926 41.1372 15.4487 41.078 15.4902 41.0032C15.5318 40.9264 15.5525 40.8381 15.5525 40.7384C15.5525 40.6408 15.5318 40.5536 15.4902 40.4768C15.4487 40.3999 15.3926 40.3407 15.322 40.2992C15.2514 40.2556 15.1704 40.2338 15.079 40.2338C14.9856 40.2338 14.9035 40.2556 14.8329 40.2992C14.7623 40.3407 14.7073 40.3999 14.6678 40.4768C14.6284 40.5536 14.6086 40.6419 14.6086 40.7416C14.6086 40.8392 14.6273 40.9264 14.6647 41.0032C14.7042 41.078 14.7592 41.1372 14.8298 41.1808C14.9025 41.2244 14.9845 41.2462 15.0759 41.2462ZM14.3438 42.0998V40.0001H14.6242V40.3895L14.5712 40.7478L14.6242 41.1092V42.0998H14.3438Z" fill="#58595B"/>
<path d="M16.157 41.4799V39.2556H16.4374V41.4799H16.157Z" fill="#58595B"/>
<path d="M16.8507 41.4799V40.0001H17.131V41.4799H16.8507ZM16.9909 39.7042C16.9389 39.7042 16.8964 39.6876 16.8631 39.6544C16.8299 39.619 16.8133 39.5754 16.8133 39.5235C16.8133 39.4737 16.8299 39.4321 16.8631 39.3989C16.8964 39.3636 16.9389 39.3459 16.9909 39.3459C17.0428 39.3459 17.0854 39.3636 17.1186 39.3989C17.1518 39.4321 17.1684 39.4737 17.1684 39.5235C17.1684 39.5754 17.1518 39.619 17.1186 39.6544C17.0854 39.6876 17.0428 39.7042 16.9909 39.7042Z" fill="#58595B"/>
<path d="M17.7561 41.4799V39.779C17.7561 39.6689 17.7799 39.5734 17.8277 39.4924C17.8755 39.4093 17.9409 39.3439 18.024 39.2961C18.1091 39.2483 18.2078 39.2245 18.3199 39.2245C18.4051 39.2245 18.4788 39.239 18.5411 39.2681C18.6034 39.2971 18.6605 39.3397 18.7124 39.3958L18.5286 39.5765C18.5016 39.5474 18.4715 39.5256 18.4383 39.5111C18.4051 39.4944 18.3646 39.4861 18.3168 39.4861C18.2275 39.4861 18.1579 39.5121 18.1081 39.564C18.0603 39.6159 18.0364 39.6876 18.0364 39.779V41.4799H17.7561ZM17.3916 40.2556V40.0001H18.5068V40.2556H17.3916Z" fill="#58595B"/>
<path d="M19.2288 41.4923L18.5871 40.0001H18.8986L19.3752 41.1683H19.2755L19.7771 40.0001H20.0886L19.397 41.4923H19.2288ZM18.8051 42.0998L19.2413 41.2057L19.397 41.4923L19.1167 42.0998H18.8051Z" fill="#58595B"/>
<path d="M21.638 40.6014L20.7875 39.3179H21.1271L21.8124 40.3677H21.6598L22.3483 39.3179H22.6816L21.8249 40.6014H21.638ZM21.5881 41.4799V40.4082H21.881V41.4799H21.5881Z" fill="#58595B"/>
<path d="M23.1912 41.511C23.0458 41.511 22.9149 41.4767 22.7986 41.4082C22.6823 41.3397 22.5899 41.2473 22.5214 41.131C22.4529 41.0126 22.4186 40.8807 22.4186 40.7353C22.4186 40.592 22.4529 40.4633 22.5214 40.349C22.5899 40.2327 22.6823 40.1403 22.7986 40.0718C22.9149 40.0033 23.0458 39.969 23.1912 39.969C23.3345 39.969 23.4643 40.0033 23.5806 40.0718C23.6989 40.1382 23.7924 40.2296 23.8609 40.3459C23.9295 40.4622 23.9637 40.592 23.9637 40.7353C23.9637 40.8807 23.9295 41.0126 23.8609 41.131C23.7924 41.2473 23.6989 41.3397 23.5806 41.4082C23.4643 41.4767 23.3345 41.511 23.1912 41.511ZM23.1912 41.24C23.2846 41.24 23.3677 41.2182 23.4404 41.1746C23.5131 41.131 23.5702 41.0718 23.6117 40.997C23.6532 40.9202 23.674 40.8329 23.674 40.7353C23.674 40.6398 23.6522 40.5546 23.6086 40.4799C23.5671 40.4051 23.5099 40.347 23.4373 40.3054C23.3666 40.2618 23.2846 40.24 23.1912 40.24C23.0977 40.24 23.0146 40.2618 22.9419 40.3054C22.8693 40.347 22.8121 40.4051 22.7706 40.4799C22.7291 40.5546 22.7083 40.6398 22.7083 40.7353C22.7083 40.8329 22.7291 40.9202 22.7706 40.997C22.8121 41.0718 22.8693 41.131 22.9419 41.1746C23.0146 41.2182 23.0977 41.24 23.1912 41.24Z" fill="#58595B"/>
<path d="M24.8777 41.511C24.7552 41.511 24.6451 41.484 24.5475 41.43C24.452 41.3739 24.3772 41.2971 24.3232 41.1995C24.2692 41.1019 24.2422 40.9887 24.2422 40.8599V40.0001H24.5226V40.8475C24.5226 40.9285 24.5361 40.9991 24.5631 41.0593C24.5922 41.1175 24.6337 41.1621 24.6877 41.1933C24.7417 41.2244 24.8051 41.24 24.8777 41.24C24.9878 41.24 25.074 41.2057 25.1363 41.1372C25.1986 41.0666 25.2298 40.97 25.2298 40.8475V40.0001H25.5101V40.8599C25.5101 40.9887 25.4831 41.1019 25.4291 41.1995C25.3751 41.2971 25.3004 41.3739 25.2048 41.43C25.1114 41.484 25.0024 41.511 24.8777 41.511Z" fill="#58595B"/>
<path d="M25.8859 41.4799V40.0001H26.1663V41.4799H25.8859ZM26.1663 40.6356L26.0604 40.5889C26.0604 40.3999 26.104 40.2494 26.1912 40.1372C26.2784 40.0251 26.4041 39.969 26.5681 39.969C26.6429 39.969 26.7104 39.9825 26.7706 40.0095C26.8308 40.0344 26.8869 40.077 26.9388 40.1372L26.755 40.3272C26.7239 40.294 26.6896 40.2701 26.6522 40.2556C26.6149 40.241 26.5712 40.2338 26.5214 40.2338C26.4176 40.2338 26.3324 40.267 26.266 40.3335C26.1995 40.3999 26.1663 40.5006 26.1663 40.6356Z" fill="#58595B"/>
<path d="M28.8701 41.511C28.7144 41.511 28.57 41.483 28.4371 41.4269C28.3042 41.3688 28.1879 41.2888 28.0882 41.187C27.9906 41.0853 27.9148 40.9669 27.8608 40.8319C27.8068 40.6969 27.7798 40.5526 27.7798 40.3989C27.7798 40.2431 27.8068 40.0977 27.8608 39.9628C27.9148 39.8278 27.9906 39.7104 28.0882 39.6107C28.1879 39.509 28.3032 39.4301 28.434 39.374C28.5669 39.3158 28.7112 39.2868 28.867 39.2868C29.0373 39.2868 29.1868 39.3158 29.3156 39.374C29.4444 39.4321 29.5586 39.5111 29.6583 39.6107L29.4558 39.8132C29.3872 39.7364 29.3031 39.6762 29.2034 39.6325C29.1058 39.5889 28.9937 39.5671 28.867 39.5671C28.7528 39.5671 28.6479 39.5879 28.5524 39.6294C28.4568 39.6689 28.3738 39.726 28.3032 39.8008C28.2325 39.8755 28.1775 39.9638 28.138 40.0656C28.1007 40.1673 28.082 40.2784 28.082 40.3989C28.082 40.5193 28.1007 40.6304 28.138 40.7322C28.1775 40.834 28.2325 40.9222 28.3032 40.997C28.3738 41.0718 28.4568 41.1299 28.5524 41.1715C28.6479 41.2109 28.7528 41.2306 28.867 41.2306C29.002 41.2306 29.1193 41.2088 29.219 41.1652C29.3187 41.1195 29.4028 41.0583 29.4714 40.9814L29.6738 41.1808C29.5742 41.2846 29.4568 41.3656 29.3218 41.4238C29.1889 41.4819 29.0383 41.511 28.8701 41.511Z" fill="#58595B"/>
<path d="M30.6111 41.511C30.4657 41.511 30.3348 41.4767 30.2185 41.4082C30.1022 41.3397 30.0098 41.2473 29.9413 41.131C29.8728 41.0126 29.8385 40.8807 29.8385 40.7353C29.8385 40.592 29.8728 40.4633 29.9413 40.349C30.0098 40.2327 30.1022 40.1403 30.2185 40.0718C30.3348 40.0033 30.4657 39.969 30.6111 39.969C30.7544 39.969 30.8842 40.0033 31.0005 40.0718C31.1188 40.1382 31.2123 40.2296 31.2808 40.3459C31.3494 40.4622 31.3836 40.592 31.3836 40.7353C31.3836 40.8807 31.3494 41.0126 31.2808 41.131C31.2123 41.2473 31.1188 41.3397 31.0005 41.4082C30.8842 41.4767 30.7544 41.511 30.6111 41.511ZM30.6111 41.24C30.7045 41.24 30.7876 41.2182 30.8603 41.1746C30.933 41.131 30.9901 41.0718 31.0316 40.997C31.0731 40.9202 31.0939 40.8329 31.0939 40.7353C31.0939 40.6398 31.0721 40.5546 31.0285 40.4799C30.987 40.4051 30.9298 40.347 30.8572 40.3054C30.7865 40.2618 30.7045 40.24 30.6111 40.24C30.5176 40.24 30.4345 40.2618 30.3618 40.3054C30.2892 40.347 30.232 40.4051 30.1905 40.4799C30.149 40.5546 30.1282 40.6398 30.1282 40.7353C30.1282 40.8329 30.149 40.9202 30.1905 40.997C30.232 41.0718 30.2892 41.131 30.3618 41.1746C30.4345 41.2182 30.5176 41.24 30.6111 41.24Z" fill="#58595B"/>
<path d="M32.7462 41.4799V40.617C32.7462 40.5048 32.7109 40.4124 32.6403 40.3397C32.5697 40.267 32.4783 40.2307 32.3662 40.2307C32.2914 40.2307 32.225 40.2473 32.1668 40.2805C32.1087 40.3137 32.063 40.3594 32.0297 40.4176C31.9965 40.4757 31.9799 40.5422 31.9799 40.617L31.8646 40.5515C31.8646 40.4394 31.8895 40.3397 31.9394 40.2525C31.9892 40.1652 32.0588 40.0967 32.1481 40.0469C32.2374 39.9949 32.3381 39.969 32.4503 39.969C32.5624 39.969 32.6611 39.997 32.7462 40.0531C32.8335 40.1092 32.902 40.1829 32.9518 40.2743C33.0017 40.3636 33.0266 40.4591 33.0266 40.5609V41.4799H32.7462ZM31.6995 41.4799V40.0001H31.9799V41.4799H31.6995Z" fill="#58595B"/>
<path d="M33.6154 41.4799V39.3802H33.8957V41.4799H33.6154ZM33.2509 40.2556V40.0001H34.2602V40.2556H33.2509Z" fill="#58595B"/>
<path d="M34.5348 41.4799V40.0001H34.8152V41.4799H34.5348ZM34.8152 40.6356L34.7093 40.5889C34.7093 40.3999 34.7529 40.2494 34.8401 40.1372C34.9274 40.0251 35.053 39.969 35.2171 39.969C35.2918 39.969 35.3593 39.9825 35.4196 40.0095C35.4798 40.0344 35.5359 40.077 35.5878 40.1372L35.404 40.3272C35.3728 40.294 35.3386 40.2701 35.3012 40.2556C35.2638 40.241 35.2202 40.2338 35.1703 40.2338C35.0665 40.2338 34.9814 40.267 34.9149 40.3335C34.8484 40.3999 34.8152 40.5006 34.8152 40.6356Z" fill="#58595B"/>
<path d="M36.3658 41.511C36.2308 41.511 36.1083 41.4778 35.9982 41.4113C35.8881 41.3428 35.8009 41.2504 35.7365 41.1341C35.6742 41.0178 35.6431 40.8869 35.6431 40.7416C35.6431 40.5962 35.6742 40.4653 35.7365 40.349C35.8009 40.2327 35.8871 40.1403 35.9951 40.0718C36.1051 40.0033 36.2287 39.969 36.3658 39.969C36.4779 39.969 36.5776 39.9929 36.6648 40.0406C36.7541 40.0863 36.8258 40.1507 36.8798 40.2338C36.9338 40.3148 36.9639 40.4093 36.9701 40.5173V40.9627C36.9639 41.0687 36.9338 41.1631 36.8798 41.2462C36.8279 41.3293 36.7573 41.3947 36.668 41.4425C36.5807 41.4882 36.48 41.511 36.3658 41.511ZM36.4125 41.2462C36.5517 41.2462 36.6638 41.1995 36.7489 41.106C36.8341 41.0105 36.8767 40.889 36.8767 40.7416C36.8767 40.6398 36.8569 40.5515 36.8175 40.4768C36.7801 40.3999 36.7261 40.3407 36.6555 40.2992C36.5849 40.2556 36.5028 40.2338 36.4094 40.2338C36.3159 40.2338 36.2329 40.2556 36.1602 40.2992C36.0896 40.3428 36.0335 40.403 35.992 40.4799C35.9525 40.5546 35.9328 40.6408 35.9328 40.7384C35.9328 40.8381 35.9525 40.9264 35.992 41.0032C36.0335 41.078 36.0906 41.1372 36.1633 41.1808C36.236 41.2244 36.3191 41.2462 36.4125 41.2462ZM36.858 41.4799V41.0811L36.9109 40.7198L36.858 40.3615V40.0001H37.1415V41.4799H36.858Z" fill="#58595B"/>
<path d="M38.2257 41.511C38.0803 41.511 37.9484 41.4767 37.83 41.4082C37.7137 41.3397 37.6213 41.2473 37.5528 41.131C37.4863 41.0126 37.4531 40.8817 37.4531 40.7384C37.4531 40.5931 37.4863 40.4622 37.5528 40.3459C37.6213 40.2296 37.7137 40.1382 37.83 40.0718C37.9484 40.0033 38.0803 39.969 38.2257 39.969C38.3399 39.969 38.4458 39.9908 38.5434 40.0344C38.641 40.0759 38.7251 40.1372 38.7957 40.2182L38.6088 40.4051C38.5631 40.3511 38.5071 40.3106 38.4406 40.2836C38.3762 40.2545 38.3046 40.24 38.2257 40.24C38.1322 40.24 38.0491 40.2618 37.9764 40.3054C37.9037 40.347 37.8466 40.4051 37.8051 40.4799C37.7636 40.5546 37.7428 40.6408 37.7428 40.7384C37.7428 40.8361 37.7636 40.9222 37.8051 40.997C37.8466 41.0718 37.9037 41.131 37.9764 41.1746C38.0491 41.2182 38.1322 41.24 38.2257 41.24C38.3046 41.24 38.3762 41.2265 38.4406 41.1995C38.5071 41.1704 38.5642 41.1289 38.6119 41.0749L38.7957 41.2618C38.7272 41.3407 38.6431 41.402 38.5434 41.4456C38.4458 41.4892 38.3399 41.511 38.2257 41.511Z" fill="#58595B"/>
<path d="M39.2829 41.4799V39.3802H39.5633V41.4799H39.2829ZM38.9185 40.2556V40.0001H39.9278V40.2556H38.9185Z" fill="#58595B"/>
<path d="M40.6424 41.511C40.5593 41.511 40.4804 41.5006 40.4057 41.4799C40.333 41.457 40.2655 41.4259 40.2032 41.3864C40.1409 41.3449 40.0869 41.2961 40.0412 41.24L40.2219 41.0593C40.2759 41.1258 40.3382 41.1756 40.4088 41.2088C40.4794 41.24 40.5583 41.2556 40.6455 41.2556C40.7328 41.2556 40.8003 41.241 40.848 41.212C40.8958 41.1808 40.9197 41.1382 40.9197 41.0842C40.9197 41.0302 40.8999 40.9887 40.8605 40.9596C40.8231 40.9285 40.7743 40.9035 40.7141 40.8849C40.6538 40.8641 40.5895 40.8444 40.5209 40.8257C40.4545 40.8049 40.3911 40.7789 40.3309 40.7478C40.2707 40.7166 40.2208 40.6741 40.1814 40.6201C40.144 40.5661 40.1253 40.4944 40.1253 40.4051C40.1253 40.3158 40.1471 40.239 40.1907 40.1746C40.2343 40.1081 40.2946 40.0573 40.3714 40.0219C40.4503 39.9866 40.5448 39.969 40.6549 39.969C40.7712 39.969 40.874 39.9898 40.9633 40.0313C41.0547 40.0708 41.1294 40.131 41.1876 40.212L41.0069 40.3927C40.9654 40.3387 40.9134 40.2971 40.8511 40.268C40.7909 40.239 40.7224 40.2244 40.6455 40.2244C40.5645 40.2244 40.5022 40.239 40.4586 40.268C40.4171 40.295 40.3963 40.3335 40.3963 40.3833C40.3963 40.4332 40.415 40.4716 40.4524 40.4986C40.4898 40.5256 40.5386 40.5484 40.5988 40.5671C40.6611 40.5858 40.7255 40.6055 40.7919 40.6263C40.8584 40.645 40.9217 40.6709 40.982 40.7042C41.0422 40.7374 41.091 40.7821 41.1284 40.8381C41.1678 40.8942 41.1876 40.9679 41.1876 41.0593C41.1876 41.1985 41.1377 41.3085 41.038 41.3895C40.9404 41.4705 40.8086 41.511 40.6424 41.511Z" fill="#58595B"/>
</svg>
