<svg width="4507" height="521" viewBox="0 0 4507 521" fill="none" xmlns="http://www.w3.org/2000/svg">
<g clip-path="url(#clip0_1109_4389)">
<path d="M262.348 57.3077C263.426 57.3077 264.503 56.9958 265.467 56.3719L315.289 23.5641C317.897 21.8344 318.635 18.3183 316.905 15.7096C315.175 13.1008 311.659 12.3636 309.05 14.0933L259.229 46.9011C256.62 48.6308 255.883 52.1469 257.613 54.7556C258.69 56.4003 260.505 57.3077 262.348 57.3077Z" fill="white"/>
<path d="M257.499 111.07C258.577 112.828 260.448 113.821 262.376 113.821C263.369 113.821 264.39 113.565 265.297 112.998L369.193 50.4167C371.887 48.8005 372.738 45.3127 371.121 42.6189C369.505 39.9251 366.017 39.0744 363.324 40.6907L259.427 103.272C256.734 104.888 255.883 108.376 257.499 111.07Z" fill="white"/>
<path d="M256.905 167.301C257.869 167.301 258.862 167.046 259.741 166.535L425.027 70.2385C427.721 68.6506 428.657 65.1912 427.069 62.4974C425.481 59.8036 422.022 58.8678 419.328 60.4558L254.041 156.752C251.348 158.34 250.412 161.8 252 164.494C253.049 166.308 254.949 167.301 256.905 167.301Z" fill="white"/>
<path d="M252.253 216.071C253.302 217.914 255.23 218.963 257.187 218.963C258.123 218.963 259.087 218.736 259.966 218.226L476.888 95.7849C479.611 94.2537 480.575 90.7943 479.043 88.0721C477.512 85.3499 474.053 84.3858 471.331 85.9171L254.408 208.358C251.686 209.889 250.722 213.348 252.253 216.071Z" fill="white"/>
<path d="M251.913 267.679C252.962 269.551 254.891 270.6 256.875 270.6C257.811 270.6 258.747 270.373 259.626 269.891L489.621 142.601C492.371 141.07 493.364 137.639 491.832 134.889C490.301 132.138 486.87 131.146 484.12 132.677L254.125 259.966C251.374 261.498 250.382 264.929 251.913 267.679Z" fill="white"/>
<path d="M486.105 187.262L256.876 304.826C254.097 306.244 252.991 309.675 254.409 312.454C255.401 314.41 257.414 315.544 259.456 315.544C260.335 315.544 261.214 315.346 262.036 314.921L491.266 197.357C494.044 195.939 495.15 192.508 493.733 189.729C492.315 186.95 488.884 185.844 486.105 187.262Z" fill="white"/>
<path d="M488.744 231.98L254.212 357.767C251.462 359.241 250.412 362.672 251.887 365.451C252.908 367.351 254.864 368.428 256.878 368.428C257.785 368.428 258.692 368.202 259.543 367.748L494.075 241.961C496.825 240.487 497.874 237.056 496.4 234.277C494.925 231.526 491.494 230.477 488.715 231.951L488.744 231.98Z" fill="white"/>
<path d="M488.801 286.622L254.553 409.205C251.774 410.651 250.696 414.082 252.171 416.861C253.192 418.789 255.148 419.895 257.19 419.895C258.069 419.895 258.976 419.696 259.827 419.243L494.075 296.66C496.854 295.214 497.931 291.783 496.457 289.004C495.011 286.225 491.58 285.176 488.801 286.622Z" fill="white"/>
<path d="M491.352 348.636C494.131 347.162 495.18 343.73 493.705 340.98C492.231 338.201 488.8 337.152 486.049 338.626L254.24 461.209C251.461 462.683 250.412 466.115 251.886 468.865C252.907 470.793 254.864 471.899 256.905 471.899C257.813 471.899 258.72 471.701 259.542 471.247L491.352 348.664V348.636Z" fill="white"/>
<path d="M488.742 385.725L260.421 509.074C257.67 510.577 256.649 514.008 258.124 516.758C259.145 518.658 261.101 519.735 263.115 519.735C264.022 519.735 264.958 519.509 265.808 519.055L494.13 395.707C496.881 394.204 497.901 390.773 496.427 388.022C494.924 385.272 491.493 384.251 488.742 385.725Z" fill="white"/>
<path d="M181.792 24.2731L231.613 57.0809C232.577 57.7047 233.655 58.0166 234.732 58.0166C236.575 58.0166 238.39 57.1093 239.467 55.4646C241.197 52.8559 240.46 49.3398 237.851 47.61L188.03 14.8023C185.421 13.0726 181.905 13.8098 180.175 16.4185C178.446 19.0273 179.183 22.5434 181.792 24.2731Z" fill="white"/>
<path d="M127.913 51.126L231.809 113.707C232.717 114.246 233.737 114.53 234.73 114.53C236.658 114.53 238.529 113.537 239.607 111.779C241.223 109.085 240.344 105.626 237.679 103.981L133.783 41.4283C131.117 39.812 127.63 40.691 125.985 43.3565C124.369 46.0503 125.248 49.5097 127.913 51.1544V51.126Z" fill="white"/>
<path d="M243.068 157.433L77.8103 61.1364C75.1165 59.5485 71.6287 60.4842 70.0691 63.178C68.5096 65.8719 69.4169 69.3596 72.1108 70.9192L237.397 167.216C238.305 167.726 239.269 167.981 240.233 167.981C242.189 167.981 244.089 166.961 245.138 165.174C246.726 162.48 245.791 158.993 243.097 157.433H243.068Z" fill="white"/>
<path d="M20.1883 96.4949L237.111 218.936C237.99 219.446 238.954 219.673 239.89 219.673C241.875 219.673 243.803 218.624 244.824 216.781C246.355 214.058 245.391 210.599 242.669 209.068L25.7744 86.5987C23.0522 85.0675 19.5928 86.0316 18.0616 88.7537C16.5304 91.4759 17.4945 94.9353 20.2166 96.4665L20.1883 96.4949Z" fill="white"/>
<path d="M7.48538 143.311L237.48 270.601C238.359 271.083 239.295 271.31 240.231 271.31C242.216 271.31 244.172 270.261 245.193 268.389C246.696 265.639 245.732 262.208 242.981 260.677L12.9864 133.387C10.2359 131.884 6.80484 132.876 5.27362 135.599C3.77075 138.349 4.73485 141.78 7.48538 143.311Z" fill="white"/>
<path d="M5.81355 198.066L235.043 315.63C235.865 316.055 236.744 316.254 237.623 316.254C239.693 316.254 241.678 315.119 242.67 313.163C244.088 310.384 243.011 306.953 240.203 305.535L11.0027 187.972C8.2238 186.554 4.79274 187.631 3.37494 190.439C1.95715 193.217 3.03467 196.649 5.8419 198.066H5.81355Z" fill="white"/>
<path d="M3.0049 242.67L237.537 368.457C238.387 368.91 239.295 369.137 240.202 369.137C242.215 369.137 244.172 368.06 245.193 366.16C246.667 363.409 245.646 359.95 242.867 358.475L8.36416 232.689C5.61364 231.214 2.15422 232.235 0.679715 235.014C-0.794792 237.764 0.22602 241.224 3.0049 242.698V242.67Z" fill="white"/>
<path d="M3.03284 297.398L237.281 419.981C238.132 420.406 239.011 420.633 239.918 420.633C241.96 420.633 243.945 419.527 244.937 417.599C246.383 414.82 245.306 411.389 242.555 409.943L8.30704 287.332C5.52816 285.885 2.0971 286.963 0.650948 289.713C-0.795203 292.492 0.282322 295.923 3.03284 297.37V297.398Z" fill="white"/>
<path d="M242.87 461.89L11.0602 339.307C8.28131 337.833 4.85024 338.91 3.40409 341.661C1.92959 344.44 3.00711 347.871 5.75763 349.317L237.567 471.9C238.418 472.353 239.325 472.552 240.204 472.552C242.246 472.552 244.202 471.446 245.223 469.518C246.698 466.739 245.62 463.308 242.87 461.862V461.89Z" fill="white"/>
<path d="M236.687 509.783L8.36501 386.435C5.61448 384.932 2.15507 385.982 0.680559 388.732C-0.793948 391.483 0.226864 394.914 2.97739 396.417L231.299 519.765C232.15 520.218 233.085 520.445 233.993 520.445C236.006 520.445 237.963 519.368 238.984 517.468C240.458 514.717 239.437 511.286 236.687 509.783Z" fill="white"/>
<path d="M1154.96 0L823.199 462.088H934.383L1158.59 167.697L1298.95 352.946H1407.42L1154.96 0Z" fill="white"/>
<path d="M1143.11 334.713H1101.17V376.651H1143.11V334.713Z" fill="white"/>
<path d="M1199.48 334.713H1157.54V376.651H1199.48V334.713Z" fill="white"/>
<path d="M1143.11 388.958H1101.17V430.896H1143.11V388.958Z" fill="white"/>
<path d="M1199.48 388.958H1157.54V430.896H1199.48V388.958Z" fill="white"/>
<path d="M715.645 59.2362L782.168 58.7825C865.109 60.5973 865.109 160.41 865.109 160.41C864.996 162.026 864.854 163.614 864.684 165.174C859.495 214.74 816.621 251.829 766.8 251.829H741.166V279.845H782.792C812.481 279.845 841.999 273.72 868.739 260.79C956.897 218.114 951.708 137.669 951.708 137.669C949.44 84.3595 923.92 54.6425 898.966 38.2812C879.089 25.2375 855.582 18.8857 831.848 18.8857H550.699V45.6254H628.168V445.699H561.645V471.219H794.05V445.699H715.674V59.2362H715.645Z" fill="white"/>
<path d="M1694.44 402.908C1691.8 409.94 1683.83 415.129 1677.88 419.099C1671.15 423.579 1663.9 427.237 1656.49 430.441C1646.71 434.695 1636.73 438.608 1626.38 441.273C1624.85 441.67 1623.32 442.039 1621.76 442.379C1588.44 449.78 1554.22 443.258 1522.66 431.661C1522.23 431.491 1521.75 431.32 1521.46 430.952C1521.07 430.47 1521.07 429.818 1521.07 429.222C1521.07 422.076 1521.07 414.931 1521.07 407.757V41.9372H1590.34V18.8271H1367.95V44.6594H1423.55V430.895C1424.91 455.281 1381.16 459.846 1381.16 459.846V487.635H1721.12V388.985H1695.14C1695.6 393.607 1696.11 398.484 1694.44 402.936V402.908Z" fill="white"/>
<path d="M2271.79 18.829L2076.73 361.538L1875 15.7949L1789.94 458.147L1737.68 458.771V487.609H1905.37V458.147H1848.26L1885.33 182.301L2046.36 472.126H2070.66L2232.88 170.732L2277.23 458.147H2249.9V487.609H2430.98V460.586H2368.4L2271.79 18.829Z" fill="white"/>
<path d="M2653.38 430.188L2489.31 72.9033H2442.83L2633.33 473.941H2664.29L2851.16 72.9033H2805.87L2653.38 430.188Z" fill="white"/>
<path d="M2941.38 72.9033H2912.21V473.941H2941.38V72.9033Z" fill="white"/>
<path d="M3074.46 72.9033H3045.28V473.941H3048.32H3074.46H3316V444.791H3074.46V72.9033Z" fill="white"/>
<path d="M3415.33 72.9033H3386.18V473.941H3389.21H3415.33H3656.86V444.791H3415.33V72.9033Z" fill="white"/>
<path d="M3896.58 72.9033L3689.7 473.941H3730.7L3781.68 367.918H4039.35L4091.64 473.941H4128.11L3924.85 72.9033H3896.61H3896.58ZM3795.69 338.74L3908.89 103.272L4024.98 338.74H3795.69Z" fill="white"/>
<path d="M4348.12 249.192C4262.97 231.612 4224.41 211.819 4224.41 172.093C4224.41 136.846 4250.75 103.613 4332.64 103.613C4384.02 103.613 4427.32 120.4 4460.84 145.268L4479.61 120.315C4443.74 93.9155 4385.81 74.0664 4335.28 74.0664C4234.56 74.0664 4188.53 119.918 4188.53 174.134C4188.53 228.351 4243.01 260.393 4338.45 279.618C4457.77 303.607 4470.93 330.801 4470.93 364.913C4470.93 404.441 4431.63 439.035 4354.87 439.035C4278.11 439.035 4226.11 416.407 4184.54 383.94L4166.19 409.318C4210.68 440.85 4274.37 468.837 4351.61 468.837C4450.74 468.837 4507.06 419.441 4507.06 362.729C4507.06 306.018 4478.22 276.669 4348.18 249.278L4348.12 249.192Z" fill="white"/>
</g>
<defs>
<clipPath id="clip0_1109_4389">
<rect width="4507" height="520.444" fill="white"/>
</clipPath>
</defs>
</svg>
