<svg width="145" height="60" viewBox="0 0 145 60" fill="none" xmlns="http://www.w3.org/2000/svg">
<path d="M15.5591 3.39867C15.623 3.39867 15.6869 3.38017 15.7441 3.34318L18.6989 1.39742C18.8536 1.29484 18.8973 1.0863 18.7947 0.931583C18.6921 0.776864 18.4836 0.733139 18.3289 0.835724L15.3741 2.78148C15.2194 2.88407 15.1756 3.0926 15.2782 3.24732C15.3421 3.34486 15.4498 3.39867 15.5591 3.39867Z" fill="black"/>
<path d="M15.2711 6.58703C15.3351 6.6913 15.446 6.75016 15.5604 6.75016C15.6193 6.75016 15.6798 6.73503 15.7336 6.70139L21.8955 2.98983C22.0552 2.89397 22.1057 2.68711 22.0098 2.52735C21.914 2.36759 21.7071 2.31714 21.5473 2.41299L15.3855 6.12456C15.2257 6.22042 15.1753 6.42727 15.2711 6.58703Z" fill="black"/>
<path d="M15.2363 9.92201C15.2935 9.92201 15.3524 9.90688 15.4045 9.87661L25.2073 4.16547C25.367 4.07129 25.4225 3.86612 25.3284 3.70636C25.2342 3.5466 25.029 3.4911 24.8692 3.58528L15.0665 9.29641C14.9067 9.39059 14.8512 9.59576 14.9454 9.75552C15.0076 9.86315 15.1203 9.92201 15.2363 9.92201Z" fill="black"/>
<path d="M14.9601 12.8145C15.0224 12.9238 15.1367 12.9861 15.2528 12.9861C15.3083 12.9861 15.3654 12.9726 15.4176 12.9423L28.2828 5.68064C28.4442 5.58983 28.5014 5.38465 28.4106 5.22321C28.3198 5.06176 28.1146 5.00459 27.9532 5.0954L15.088 12.3571C14.9265 12.4479 14.8693 12.6531 14.9601 12.8145Z" fill="black"/>
<path d="M14.9402 15.8754C15.0024 15.9864 15.1167 16.0486 15.2345 16.0486C15.2899 16.0486 15.3454 16.0352 15.3976 16.0066L29.038 8.45734C29.2012 8.36653 29.26 8.16304 29.1692 7.99991C29.0784 7.83679 28.8749 7.77793 28.7118 7.86874L15.0713 15.418C14.9082 15.5088 14.8493 15.7123 14.9402 15.8754Z" fill="black"/>
<path d="M28.8298 11.1062L15.2347 18.0786C15.0699 18.1627 15.0043 18.3662 15.0884 18.531C15.1473 18.6471 15.2667 18.7143 15.3877 18.7143C15.4399 18.7143 15.492 18.7026 15.5408 18.6773L29.1358 11.7049C29.3006 11.6208 29.3662 11.4173 29.2821 11.2525C29.1981 11.0877 28.9946 11.0221 28.8298 11.1062Z" fill="black"/>
<path d="M28.9855 13.7581L15.076 21.2182C14.9128 21.3057 14.8506 21.5092 14.9381 21.674C14.9986 21.7867 15.1147 21.8506 15.2341 21.8506C15.2879 21.8506 15.3417 21.8371 15.3921 21.8102L29.3017 14.3501C29.4648 14.2626 29.527 14.0591 29.4396 13.8943C29.3521 13.7312 29.1486 13.669 28.9838 13.7564L28.9855 13.7581Z" fill="black"/>
<path d="M28.9892 16.9987L15.0965 24.2688C14.9317 24.3545 14.8678 24.558 14.9552 24.7228C15.0158 24.8372 15.1318 24.9028 15.2529 24.9028C15.305 24.9028 15.3588 24.891 15.4093 24.8641L29.302 17.594C29.4668 17.5082 29.5307 17.3047 29.4433 17.1399C29.3575 16.9751 29.154 16.9129 28.9892 16.9987Z" fill="black"/>
<path d="M29.1402 20.6767C29.305 20.5892 29.3672 20.3858 29.2798 20.2226C29.1923 20.0578 28.9888 19.9956 28.8257 20.083L15.0776 27.3531C14.9128 27.4406 14.8506 27.6441 14.938 27.8072C14.9986 27.9216 15.1146 27.9871 15.2357 27.9871C15.2895 27.9871 15.3433 27.9754 15.3921 27.9485L29.1402 20.6784V20.6767Z" fill="black"/>
<path d="M28.986 22.8763L15.4448 30.1918C15.2817 30.281 15.2211 30.4844 15.3086 30.6476C15.3691 30.7602 15.4852 30.8242 15.6046 30.8242C15.6584 30.8242 15.7139 30.8107 15.7643 30.7838L29.3056 23.4683C29.4687 23.3792 29.5292 23.1757 29.4418 23.0125C29.3527 22.8494 29.1492 22.7889 28.986 22.8763Z" fill="black"/>
<path d="M10.7808 1.43966L13.7356 3.38541C13.7928 3.42241 13.8567 3.44091 13.9206 3.44091C14.0299 3.44091 14.1375 3.38709 14.2015 3.28955C14.304 3.13484 14.2603 2.9263 14.1056 2.82372L11.1508 0.877961C10.9961 0.775375 10.7876 0.8191 10.685 0.973819C10.5824 1.12854 10.6261 1.33707 10.7808 1.43966Z" fill="black"/>
<path d="M7.5858 3.03207L13.7476 6.74363C13.8015 6.77559 13.862 6.7924 13.9209 6.7924C14.0352 6.7924 14.1462 6.73354 14.2101 6.62928C14.306 6.46951 14.2538 6.26434 14.0958 6.1668L7.93392 2.45692C7.77584 2.36106 7.56898 2.41319 7.47144 2.57128C7.37559 2.73104 7.42772 2.93621 7.5858 3.03375V3.03207Z" fill="black"/>
<path d="M14.4153 9.33718L4.6142 3.62605C4.45443 3.53187 4.24758 3.58737 4.15508 3.74713C4.06259 3.9069 4.11641 4.11375 4.27617 4.20624L14.0789 9.91738C14.1328 9.94765 14.1899 9.96279 14.2471 9.96279C14.3632 9.96279 14.4758 9.90224 14.5381 9.7963C14.6322 9.63653 14.5767 9.42968 14.417 9.33718H14.4153Z" fill="black"/>
<path d="M1.19711 5.72309L14.0623 12.9848C14.1144 13.0151 14.1716 13.0285 14.2271 13.0285C14.3448 13.0285 14.4592 12.9663 14.5197 12.857C14.6106 12.6955 14.5534 12.4904 14.3919 12.3995L1.52841 5.13617C1.36697 5.04536 1.1618 5.10254 1.07098 5.26398C0.980171 5.42543 1.03735 5.6306 1.1988 5.72141L1.19711 5.72309Z" fill="black"/>
<path d="M0.443625 8.49958L14.0841 16.0488C14.1362 16.0774 14.1917 16.0909 14.2472 16.0909C14.3649 16.0909 14.481 16.0287 14.5415 15.9177C14.6307 15.7545 14.5735 15.5511 14.4104 15.4602L0.76988 7.91098C0.606753 7.82185 0.403264 7.88071 0.312451 8.04216C0.223319 8.20528 0.280498 8.40877 0.443625 8.49958Z" fill="black"/>
<path d="M0.344662 11.7467L13.9397 18.7192C13.9885 18.7444 14.0406 18.7562 14.0928 18.7562C14.2155 18.7562 14.3332 18.6889 14.3921 18.5728C14.4762 18.408 14.4123 18.2045 14.2458 18.1205L0.652418 11.148C0.487609 11.0639 0.28412 11.1279 0.200034 11.2943C0.115948 11.4592 0.179853 11.6626 0.346344 11.7467H0.344662Z" fill="black"/>
<path d="M0.177866 14.3921L14.0874 21.8522C14.1379 21.8791 14.1917 21.8926 14.2455 21.8926C14.3649 21.8926 14.4809 21.8287 14.5415 21.716C14.6289 21.5528 14.5684 21.3477 14.4036 21.2602L0.495712 13.8001C0.332585 13.7126 0.127415 13.7732 0.0399649 13.938C-0.0474848 14.1011 0.0130572 14.3063 0.177866 14.3937V14.3921Z" fill="black"/>
<path d="M0.179896 17.6378L14.0726 24.9079C14.1231 24.9332 14.1752 24.9466 14.229 24.9466C14.3501 24.9466 14.4678 24.881 14.5267 24.7667C14.6125 24.6019 14.5486 24.3984 14.3854 24.3126L0.492697 17.0408C0.327888 16.9551 0.124399 17.019 0.0386312 17.1821C-0.0471367 17.3469 0.0167688 17.5504 0.179896 17.6362V17.6378Z" fill="black"/>
<path d="M14.4035 27.3936L0.655431 20.1235C0.490622 20.036 0.287133 20.0999 0.201366 20.2631C0.113916 20.4279 0.177821 20.6314 0.340949 20.7171L14.089 27.9872C14.1395 28.0141 14.1933 28.0259 14.2454 28.0259C14.3665 28.0259 14.4826 27.9603 14.5431 27.846C14.6306 27.6812 14.5667 27.4777 14.4035 27.3919V27.3936Z" fill="black"/>
<path d="M14.037 30.2342L0.495762 22.9187C0.332635 22.8296 0.127465 22.8918 0.0400149 23.0549C-0.0474348 23.218 0.0131073 23.4215 0.176235 23.5107L13.7175 30.8262C13.7679 30.8531 13.8234 30.8665 13.8772 30.8665C13.9966 30.8665 14.1127 30.8026 14.1732 30.6899C14.2607 30.5268 14.2001 30.3233 14.037 30.2342Z" fill="black"/>
<path d="M68.4975 0L48.8213 27.4054H55.4153L68.7127 9.94572L77.0373 20.9324H83.4699L68.4975 0Z" fill="black"/>
<path d="M67.7949 19.8513H65.3076V22.3386H67.7949V19.8513Z" fill="black"/>
<path d="M71.1386 19.8513H68.6514V22.3386H71.1386V19.8513Z" fill="black"/>
<path d="M67.7949 23.0684H65.3076V25.5556H67.7949V23.0684Z" fill="black"/>
<path d="M71.1386 23.0684H68.6514V25.5556H71.1386V23.0684Z" fill="black"/>
<path d="M42.4432 3.51309L46.3886 3.48618C51.3076 3.59381 51.3076 9.51348 51.3076 9.51348C51.3009 9.60934 51.2925 9.70352 51.2824 9.79601C50.9746 12.7357 48.4319 14.9354 45.4771 14.9354H43.9568V16.5969H46.4256C48.1863 16.5969 49.937 16.2337 51.5229 15.4668C56.7514 12.9358 56.4436 8.16474 56.4436 8.16474C56.3091 5.0031 54.7955 3.24065 53.3156 2.27029C52.1367 1.4967 50.7425 1.12 49.3349 1.12H32.6606V2.70586H37.2551V26.4333H33.3098V27.9469H47.0932V26.4333H42.4449V3.51309H42.4432Z" fill="black"/>
<path d="M100.493 23.8954C100.336 24.3125 99.8638 24.6202 99.5106 24.8557C99.1121 25.1214 98.6816 25.3383 98.2426 25.5284C97.6624 25.7806 97.0705 26.0127 96.4566 26.1708C96.3658 26.1943 96.275 26.2162 96.1825 26.2364C94.2065 26.6753 92.1766 26.2885 90.3049 25.6007C90.2797 25.5906 90.2511 25.5805 90.2342 25.5586C90.2107 25.5301 90.2107 25.4914 90.2107 25.4561C90.2107 25.0323 90.2107 24.6085 90.2107 24.183V2.48706H94.3192V1.11646H81.1294V2.64851H84.4273V25.5553C84.508 27.0016 81.9131 27.2723 81.9131 27.2723V28.9204H102.075V23.0697H100.535C100.562 23.3438 100.592 23.6331 100.493 23.8971V23.8954Z" fill="black"/>
<path d="M134.735 1.11683L123.166 21.4422L111.202 0.93689L106.157 27.1718L103.058 27.2088V28.9191H113.003V27.1718H109.616L111.814 10.812L121.365 28.0009H122.806L132.427 10.1258L135.057 27.1718H133.436V28.9191H144.176V27.3164H140.464L134.735 1.11683Z" fill="black"/>
<path d="M23.1841 57.4051L13.4536 36.2153H10.6973L21.9951 60H23.8315L34.9141 36.2153H32.2284L23.1841 57.4051Z" fill="black"/>
<path d="M40.2657 36.2153H38.5352V60H40.2657V36.2153Z" fill="black"/>
<path d="M48.1582 36.2153H46.4277V60H46.6077H48.1582H62.4832V58.2712H48.1582V36.2153Z" fill="black"/>
<path d="M68.3738 36.2153H66.645V60H66.825H68.3738H82.6988V58.2712H68.3738V36.2153Z" fill="black"/>
<path d="M96.9164 36.2153L84.6465 60H87.0783L90.102 53.712H105.384L108.485 60H110.648L98.593 36.2153H96.918H96.9164ZM90.9328 51.9815L97.6462 38.0165L104.531 51.9815H90.9328Z" fill="black"/>
<path d="M123.696 46.6708C118.646 45.6281 116.359 44.4542 116.359 42.0981C116.359 40.0078 117.921 38.0368 122.778 38.0368C125.825 38.0368 128.393 39.0324 130.381 40.5072L131.494 39.0273C129.367 37.4616 125.931 36.2844 122.934 36.2844C116.961 36.2844 114.231 39.0038 114.231 42.2192C114.231 45.4347 117.462 47.335 123.123 48.4752C130.199 49.898 130.98 51.5108 130.98 53.5339C130.98 55.8782 128.649 57.9299 124.096 57.9299C119.544 57.9299 116.46 56.5879 113.994 54.6623L112.906 56.1675C115.545 58.0375 119.322 59.6974 123.903 59.6974C129.782 59.6974 133.122 56.7678 133.122 53.4044C133.122 50.0409 131.412 48.3003 123.7 46.6758L123.696 46.6708Z" fill="black"/>
</svg>
